<svg width="77" height="83" viewBox="0 0 77 83" version="1.1" xmlns="http://www.w3.org/2000/svg" xmlns:xlink="http://www.w3.org/1999/xlink">
<title>&#38;</title>
<desc>Created using Figma</desc>
<g id="Canvas" transform="translate(-591 -936)">
<g id="&#38;">
<use xlink:href="#path0_fill" transform="translate(591.352 936.256)" fill="#DDBCB3"/>
</g>
</g>
<defs>
<path id="path0_fill" d="M 39.208 22.464C 43.0907 22.464 45.032 23.2613 45.032 24.856C 45.032 25.272 44.8933 25.6187 44.616 25.896C 43.7147 27.4213 41.7387 28.184 38.688 28.184C 35.7067 28.184 33.0027 27.2827 30.576 25.48C 26.832 26.5893 22.464 28.9467 17.472 32.552C 9.70667 38.3067 5.824 43.9573 5.824 49.504C 5.824 55.6747 10.0187 59.1067 18.408 59.8C 20.072 49.5387 25.064 41.8427 33.384 36.712C 36.088 34.9787 39 33.7653 42.12 33.072C 45.24 32.3093 47.3547 31.824 48.464 31.616C 49.6427 31.3387 51.584 30.992 54.288 30.576C 57.0613 30.0907 58.656 29.8133 59.072 29.744C 65.52 28.6347 69.6453 27.3867 71.448 26C 73.32 24.6133 74.256 23.296 74.256 22.048C 74.256 21.7013 74.1867 21.32 74.048 20.904C 73.9787 20.488 74.0827 20.2453 74.36 20.176C 74.6373 20.1067 74.9493 20.2107 75.296 20.488C 75.8507 21.2507 76.128 22.1867 76.128 23.296C 76.128 24.4053 75.4347 25.7573 74.048 27.352C 71.968 29.432 69.0907 30.888 65.416 31.72C 64.0293 32.0667 62.1573 32.4827 59.8 32.968C 57.512 33.384 55.848 33.7307 54.808 34.008C 56.1253 35.256 56.784 37.128 56.784 39.624C 56.784 44.7547 53.7333 49.7813 47.632 54.704C 40.9067 60.112 31.8933 62.816 20.592 62.816C 20.5227 63.3707 20.488 64.2373 20.488 65.416C 20.488 70.2693 22.0827 74.0827 25.272 76.856C 28.5307 79.6987 32.6213 81.12 37.544 81.12C 39.2773 81.12 40.768 80.5307 42.016 79.352C 43.264 78.2427 43.888 76.96 43.888 75.504C 43.888 75.0187 43.7493 74.464 43.472 73.84C 43.1947 73.216 43.4373 72.904 44.2 72.904C 45.032 72.904 45.448 73.8053 45.448 75.608C 45.448 77.48 44.6507 79.1093 43.056 80.496C 41.4613 81.952 39.624 82.68 37.544 82.68C 32.136 82.68 27.6293 81.1893 24.024 78.208C 19.9333 74.9493 17.888 70.6853 17.888 65.416C 17.888 64.2373 17.9227 63.336 17.992 62.712C 11.96 62.1573 7.384 60.632 4.264 58.136C 1.42133 55.7093 0 53.04 0 50.128C 0 43.4027 5.13067 36.9893 15.392 30.888C 20.176 27.976 24.856 25.792 29.432 24.336C 27.4907 22.1867 26.52 19.3787 26.52 15.912C 26.52 14.1093 26.936 12.6187 27.768 11.44C 30.056 8.18133 33.5227 5.58133 38.168 3.64C 43.6453 1.21333 49.192 0 54.808 0C 62.2267 0 65.8667 2.32267 65.728 6.968C 65.5893 8.97867 64.7227 10.7467 63.128 12.272C 61.6027 13.728 59.904 14.456 58.032 14.456C 56.16 14.456 55.224 13.9707 55.224 13C 55.224 12.3067 55.6747 11.96 56.576 11.96L 58.344 12.272C 59.3147 12.272 60.2507 11.6827 61.152 10.504C 62.1227 9.32533 62.608 8.14667 62.608 6.968C 62.608 5.096 61.5333 3.744 59.384 2.912C 57.9973 2.42667 56.68 2.184 55.432 2.184C 49.608 2.184 44.7547 3.39734 40.872 5.824C 36.9893 8.25067 34.1467 10.9547 32.344 13.936C 31.304 15.6693 30.784 17.472 30.784 19.344C 30.784 21.216 31.2 22.6373 32.032 23.608C 34.736 22.8453 37.128 22.464 39.208 22.464ZM 53.352 38.896C 53.352 35.8453 52.0347 34.32 49.4 34.32C 48.568 34.32 46.8693 34.632 44.304 35.256C 30.9227 40.248 23.1227 48.464 20.904 59.904C 22.4293 59.904 23.9547 59.8 25.48 59.592C 34.424 58.6213 41.5307 55.7787 46.8 51.064C 51.168 47.112 53.352 43.056 53.352 38.896ZM 41.912 25.168C 41.912 24.544 40.976 24.232 39.104 24.232C 37.3013 24.232 35.36 24.44 33.28 24.856C 35.0133 25.9653 36.8853 26.52 38.896 26.52C 40.9067 26.52 41.912 26.0693 41.912 25.168Z"/>
</defs>
</svg>
