<svg width="67" height="36" viewBox="0 0 67 36" version="1.1" xmlns="http://www.w3.org/2000/svg" xmlns:xlink="http://www.w3.org/1999/xlink">
<title>Vector</title>
<desc>Created using Figma</desc>
<g id="Canvas" transform="translate(-412 -1040)">
<g id="Vector">
<use xlink:href="#path0_fill" transform="translate(412 1040)" fill="#DDBCB3"/>
</g>
</g>
<defs>
<path id="path0_fill" d="M 62.1099 0.3285C 61.8543 0.283852 61.5639 0.262566 61.247 0.262566C 56.2519 0.262566 44.0859 5.52324 37.6493 8.47597C 36.3898 8.09062 34.9852 7.90308 33.5007 7.90308C 32.1798 7.90308 30.9203 8.05117 29.7732 8.35526C 24.0992 5.31427 13.3074 2.45575e-07 7.16929 2.45575e-07C 6.3085 2.45575e-07 5.54167 0.104482 4.88946 0.333562C -2.26289 2.85734 -0.964509 34.6493 4.88946 35.6714C 5.14713 35.716 5.4375 35.7363 5.75431 35.7363C 10.9417 35.7363 23.8681 30.0618 30.0717 27.1944C 31.1391 27.7662 32.2943 28.0948 33.5007 28.0948C 34.6027 28.0948 35.6619 27.8211 36.6515 27.3364C 42.1395 30.3093 53.4772 36 59.8301 36C 60.6908 36 61.4596 35.8946 62.1099 35.6654C 69.2621 33.1402 67.9658 1.34852 62.1099 0.3285ZM 21.1221 28.1151C 11.0317 32.3372 7.16314 32.9659 5.75444 32.9659C 5.69922 32.9659 5.65015 32.9659 5.60723 32.9638C 5.41303 32.7388 4.95699 32.0856 4.44376 30.4999C 3.91627 28.8735 3.48692 26.744 3.19851 24.3348C 2.59734 19.3257 2.66277 13.7447 3.37229 9.40787C 4.17995 4.47375 5.51314 3.05319 5.82589 2.94261C 6.05084 2.86253 6.46592 2.76817 7.16929 2.76817C 10.22 2.76921 15.5995 4.51827 22.3183 7.69515C 23.8538 8.4212 25.3076 9.15127 26.6039 9.82255C 25.3096 10.7808 24.3751 12.1111 23.9622 13.8451L 22.3326 13.8451C 21.5617 13.8451 20.9381 14.4657 20.9381 15.2303C 20.9381 15.9949 21.5618 16.6144 22.3326 16.6144L 23.7516 16.6144C 23.8068 17.53 23.9725 18.4639 24.2383 19.3836L 19.5416 19.3836C 18.7707 19.3836 18.1451 20.0031 18.1451 20.7677C 18.1451 21.5323 18.7707 22.1528 19.5416 22.1528L 25.3525 22.1528C 25.9598 23.3087 26.7184 24.3775 27.5894 25.28C 25.741 26.1236 23.4939 27.1214 21.1221 28.1151ZM 33.501 25.3264C 31.91 25.3264 30.2067 24.278 28.8246 22.4508C 27.4036 20.5688 26.5203 18.0754 26.5203 15.944C 26.5203 14.1939 27.0907 12.9203 28.2644 12.0492C 29.4606 11.1609 31.3192 10.6723 33.5009 10.6723C 35.6804 10.6723 37.5411 11.1611 38.7352 12.0492C 39.9089 12.9203 40.4793 14.1938 40.4793 15.944C 40.4793 18.0754 39.596 20.5688 38.175 22.4508C 36.7948 24.278 35.0917 25.3264 33.501 25.3264ZM 61.1735 33.0551C 60.9506 33.1362 60.5334 33.2295 59.8301 33.2295C 56.7795 33.2295 51.3999 31.4813 44.683 28.3055C 42.6362 27.3401 40.7347 26.3667 39.1604 25.5312C 40.8227 23.9109 42.0985 21.6902 42.763 19.3834L 46.0632 19.3834C 46.8341 19.3834 47.4576 18.7639 47.4576 17.9994C 47.4576 17.2348 46.8339 16.6153 46.0632 16.6153L 43.2497 16.6153C 43.264 16.3902 43.2701 16.1661 43.2701 15.944C 43.2701 13.3452 42.3214 11.4236 40.7592 10.1104C 42.3111 9.41488 44.0593 8.64924 45.8791 7.88672C 55.9696 3.66243 59.8382 3.03165 61.2469 3.03165C 61.3021 3.03165 61.3512 3.03269 61.3941 3.03372C 61.5883 3.26086 62.0422 3.91383 62.5555 5.49884C 63.083 7.12329 63.5144 9.25562 63.8027 11.6639C 64.4017 16.673 64.3384 22.254 63.6289 26.5898C 62.8214 31.526 61.4883 32.9455 61.1735 33.0551Z"/>
</defs>
</svg>
