<svg width="380" height="378" viewBox="0 0 380 378" version="1.1" xmlns="http://www.w3.org/2000/svg" xmlns:xlink="http://www.w3.org/1999/xlink">
<title>Group</title>
<desc>Created using Figma</desc>
<g id="Canvas" transform="translate(-2582 209)">
<g id="Group">
<g id="17.12.2017" filter="url(#filter0_d)">
<use xlink:href="#path0_fill" transform="translate(2708.41 37.532)" fill="#FFFFFF"/>
<use xlink:href="#path1_fill" transform="translate(2708.41 37.532)" fill="#FFFFFF"/>
<use xlink:href="#path2_fill" transform="translate(2708.41 37.532)" fill="#FFFFFF"/>
<use xlink:href="#path3_fill" transform="translate(2708.41 37.532)" fill="#FFFFFF"/>
<use xlink:href="#path4_fill" transform="translate(2708.41 37.532)" fill="#FFFFFF"/>
<use xlink:href="#path5_fill" transform="translate(2708.41 37.532)" fill="#FFFFFF"/>
<use xlink:href="#path6_fill" transform="translate(2708.41 37.532)" fill="#FFFFFF"/>
<use xlink:href="#path7_fill" transform="translate(2708.41 37.532)" fill="#FFFFFF"/>
<use xlink:href="#path8_fill" transform="translate(2708.41 37.532)" fill="#FFFFFF"/>
<use xlink:href="#path9_fill" transform="translate(2708.41 37.532)" fill="#FFFFFF"/>
</g>
<g id="Joash &#38; Tamsin" filter="url(#filter1_d)">
<use xlink:href="#path10_fill" transform="translate(2620.95 -56.66)" fill="#FFFFFF"/>
<use xlink:href="#path11_fill" transform="translate(2620.95 -56.66)" fill="#FFFFFF"/>
<use xlink:href="#path12_fill" transform="translate(2620.95 -56.66)" fill="#FFFFFF"/>
<use xlink:href="#path13_fill" transform="translate(2620.95 -56.66)" fill="#FFFFFF"/>
<use xlink:href="#path14_fill" transform="translate(2620.95 -56.66)" fill="#FFFFFF"/>
<use xlink:href="#path15_fill" transform="translate(2620.95 -56.66)" fill="#FFFFFF"/>
<use xlink:href="#path16_fill" transform="translate(2620.95 -56.66)" fill="#FFFFFF"/>
<use xlink:href="#path17_fill" transform="translate(2620.95 -56.66)" fill="#FFFFFF"/>
<use xlink:href="#path18_fill" transform="translate(2620.95 -56.66)" fill="#FFFFFF"/>
<use xlink:href="#path19_fill" transform="translate(2620.95 -56.66)" fill="#FFFFFF"/>
<use xlink:href="#path20_fill" transform="translate(2620.95 -56.66)" fill="#FFFFFF"/>
<use xlink:href="#path21_fill" transform="translate(2620.95 -56.66)" fill="#FFFFFF"/>
</g>
<g id="Mask Group" opacity="0.8" filter="url(#filter2_d)">
<mask id="mask0_alpha" mask-type="alpha">
<g id="path16">
<use xlink:href="#path22_fill" transform="translate(2583 -209)" fill="#FFFFFF"/>
</g>
</mask>
<g id="Vector" mask="url(#mask0_alpha)">
<use xlink:href="#path23_fill" transform="translate(2586 -238)" fill="#FFFFFF"/>
</g>
</g>
<g id="Mask Group" opacity="0.8" filter="url(#filter3_d)">
<mask id="mask1_alpha" mask-type="alpha">
<g id="path16">
<use xlink:href="#path22_fill" transform="matrix(-1 1.22465e-16 -1.22465e-16 -1 2961 161)" fill="#FFFFFF"/>
</g>
</mask>
<g id="Vector" mask="url(#mask1_alpha)">
<use xlink:href="#path23_fill" transform="matrix(-1 1.22465e-16 -1.22465e-16 -1 2958 190)" fill="#FFFFFF"/>
</g>
</g>
</g>
</g>
<defs>
<filter id="filter0_d" filterUnits="userSpaceOnUse" x="2704" y="37" width="136" height="26" color-interpolation-filters="sRGB">
<feFlood flood-opacity="0" result="BackgroundImageFix"/>
<feColorMatrix in="SourceAlpha" type="matrix" values="0 0 0 0 0 0 0 0 0 0 0 0 0 0 0 0 0 0 255 0"/>
<feOffset dx="0" dy="4"/>
<feGaussianBlur stdDeviation="2"/>
<feColorMatrix type="matrix" values="0 0 0 0 0 0 0 0 0 0 0 0 0 0 0 0 0 0 0.6 0"/>
<feBlend mode="normal" in2="BackgroundImageFix" result="effect1_dropShadow"/>
<feBlend mode="normal" in="SourceGraphic" in2="effect1_dropShadow" result="shape"/>
</filter>
<filter id="filter1_d" filterUnits="userSpaceOnUse" x="2616" y="-57" width="322" height="57" color-interpolation-filters="sRGB">
<feFlood flood-opacity="0" result="BackgroundImageFix"/>
<feColorMatrix in="SourceAlpha" type="matrix" values="0 0 0 0 0 0 0 0 0 0 0 0 0 0 0 0 0 0 255 0"/>
<feOffset dx="0" dy="4"/>
<feGaussianBlur stdDeviation="2"/>
<feColorMatrix type="matrix" values="0 0 0 0 0 0 0 0 0 0 0 0 0 0 0 0 0 0 0.6 0"/>
<feBlend mode="normal" in2="BackgroundImageFix" result="effect1_dropShadow"/>
<feBlend mode="normal" in="SourceGraphic" in2="effect1_dropShadow" result="shape"/>
</filter>
<filter id="filter2_d" filterUnits="userSpaceOnUse" x="2582" y="-209" width="368" height="177" color-interpolation-filters="sRGB">
<feFlood flood-opacity="0" result="BackgroundImageFix"/>
<feColorMatrix in="SourceAlpha" type="matrix" values="0 0 0 0 0 0 0 0 0 0 0 0 0 0 0 0 0 0 255 0"/>
<feOffset dx="0" dy="4"/>
<feGaussianBlur stdDeviation="2"/>
<feColorMatrix type="matrix" values="0 0 0 0 0 0 0 0 0 0 0 0 0 0 0 0 0 0 0.6 0"/>
<feBlend mode="normal" in2="BackgroundImageFix" result="effect1_dropShadow"/>
<feBlend mode="normal" in="SourceGraphic" in2="effect1_dropShadow" result="shape"/>
</filter>
<filter id="filter3_d" filterUnits="userSpaceOnUse" x="2594" y="-8" width="368" height="177" color-interpolation-filters="sRGB">
<feFlood flood-opacity="0" result="BackgroundImageFix"/>
<feColorMatrix in="SourceAlpha" type="matrix" values="0 0 0 0 0 0 0 0 0 0 0 0 0 0 0 0 0 0 255 0"/>
<feOffset dx="0" dy="4"/>
<feGaussianBlur stdDeviation="2"/>
<feColorMatrix type="matrix" values="0 0 0 0 0 0 0 0 0 0 0 0 0 0 0 0 0 0 0.6 0"/>
<feBlend mode="normal" in2="BackgroundImageFix" result="effect1_dropShadow"/>
<feBlend mode="normal" in="SourceGraphic" in2="effect1_dropShadow" result="shape"/>
</filter>
<path id="path0_fill" d="M 5.29 13.961C 5.29 14.7277 5.267 15.2567 5.221 15.548L 7.153 15.456L 7.153 16.468L 1.288 16.468L 1.288 15.709C 2.03933 15.6783 2.56067 15.4483 2.852 15.019C 3.14333 14.5897 3.289 13.9457 3.289 13.087L 3.266 2.231L 3.22 2.231L 0.46 4.002L 0 3.335L 4.485 0L 5.267 0L 5.29 13.961Z"/>
<path id="path1_fill" d="M 21.7363 1.932C 21.031 3.37333 20.433 4.76867 19.9423 6.118C 19.467 7.452 19.0607 8.74767 18.7233 10.005C 18.386 11.2623 17.926 13.0717 17.3433 15.433C 17.098 16.3683 16.6993 16.836 16.1473 16.836C 15.5647 16.836 15.2733 16.4987 15.2733 15.824C 15.2733 15.456 15.3807 14.9653 15.5953 14.352C 15.81 13.7233 16.1167 12.926 16.5153 11.96L 16.8373 11.132L 17.1363 10.373C 17.9183 8.41033 18.5547 6.82333 19.0453 5.612C 19.5513 4.40067 20.0957 3.18167 20.6783 1.955L 14.6063 1.978C 13.303 2.00867 12.6513 2.60667 12.6513 3.772L 12.0993 3.772L 12.0993 0.368001L 21.7363 0.368001L 21.7363 1.932Z"/>
<path id="path2_fill" d="M 27.6426 13.869C 28.0259 13.869 28.3402 14.0147 28.5856 14.306C 28.8462 14.5973 28.9766 14.95 28.9766 15.364C 28.9766 15.778 28.8386 16.1307 28.5626 16.422C 28.3019 16.698 27.9876 16.836 27.6196 16.836C 27.2516 16.836 26.9372 16.698 26.6766 16.422C 26.4159 16.1307 26.2856 15.778 26.2856 15.364C 26.2856 14.95 26.4159 14.5973 26.6766 14.306C 26.9526 14.0147 27.2746 13.869 27.6426 13.869Z"/>
<path id="path3_fill" d="M 39.8071 13.961C 39.8071 14.7277 39.7841 15.2567 39.7381 15.548L 41.6701 15.456L 41.6701 16.468L 35.8051 16.468L 35.8051 15.709C 36.5564 15.6783 37.0778 15.4483 37.3691 15.019C 37.6604 14.5897 37.8061 13.9457 37.8061 13.087L 37.7831 2.231L 37.7371 2.231L 34.9771 4.002L 34.5171 3.335L 39.0021 0L 39.7841 0L 39.8071 13.961Z"/>
<path id="path4_fill" d="M 52.0674 0C 53.4474 0 54.5974 0.337333 55.5174 1.012C 56.4374 1.67133 56.8974 2.72167 56.8974 4.163C 56.8974 4.97567 56.5371 5.888 55.8164 6.9C 55.1111 7.912 53.9688 9.062 52.3894 10.35C 51.3161 11.2393 50.4498 12.0597 49.7904 12.811C 49.1464 13.5623 48.7708 14.1987 48.6634 14.72L 52.7344 14.835C 53.0718 14.8503 53.5318 14.858 54.1144 14.858C 54.9578 14.858 55.5788 14.7507 55.9774 14.536C 56.3761 14.3213 56.5754 13.892 56.5754 13.248L 57.2654 13.248L 57.1274 16.468L 47.1684 16.468C 47.1684 15.594 47.3218 14.812 47.6284 14.122C 47.9504 13.432 48.3414 12.8263 48.8014 12.305C 49.2614 11.7683 49.9208 11.1013 50.7794 10.304C 51.3774 9.752 51.6841 9.46833 51.6994 9.453C 52.6808 8.51767 53.3938 7.64367 53.8384 6.831C 54.2984 6.01833 54.5284 5.22867 54.5284 4.462C 54.5284 3.45 54.3061 2.60667 53.8614 1.932C 53.4321 1.242 52.7114 0.897001 51.6994 0.897001C 51.0708 0.897001 50.5111 1.05033 50.0204 1.357C 49.5298 1.66367 49.2001 2.05467 49.0314 2.53C 49.3074 2.82133 49.4454 3.15867 49.4454 3.542C 49.4454 3.80267 49.3534 4.048 49.1694 4.278C 48.9854 4.508 48.7171 4.623 48.3644 4.623C 48.0271 4.623 47.7588 4.508 47.5594 4.278C 47.3601 4.03267 47.2604 3.726 47.2604 3.358C 47.2604 2.88267 47.4444 2.38433 47.8124 1.863C 48.1958 1.34167 48.7478 0.904667 49.4684 0.552001C 50.2044 0.184 51.0708 0 52.0674 0Z"/>
<path id="path5_fill" d="M 64.9224 13.869C 65.3057 13.869 65.62 14.0147 65.8654 14.306C 66.126 14.5973 66.2564 14.95 66.2564 15.364C 66.2564 15.778 66.1184 16.1307 65.8424 16.422C 65.5817 16.698 65.2674 16.836 64.8994 16.836C 64.5314 16.836 64.217 16.698 63.9564 16.422C 63.6957 16.1307 63.5654 15.778 63.5654 15.364C 63.5654 14.95 63.6957 14.5973 63.9564 14.306C 64.2324 14.0147 64.5544 13.869 64.9224 13.869Z"/>
<path id="path6_fill" d="M 77.3399 0C 78.7199 0 79.8699 0.337333 80.7899 1.012C 81.7099 1.67133 82.1699 2.72167 82.1699 4.163C 82.1699 4.97567 81.8096 5.888 81.0889 6.9C 80.3836 7.912 79.2412 9.062 77.6619 10.35C 76.5886 11.2393 75.7222 12.0597 75.0629 12.811C 74.4189 13.5623 74.0432 14.1987 73.9359 14.72L 78.0069 14.835C 78.3442 14.8503 78.8042 14.858 79.3869 14.858C 80.2302 14.858 80.8512 14.7507 81.2499 14.536C 81.6486 14.3213 81.8479 13.892 81.8479 13.248L 82.5379 13.248L 82.3999 16.468L 72.4409 16.468C 72.4409 15.594 72.5942 14.812 72.9009 14.122C 73.2229 13.432 73.6139 12.8263 74.0739 12.305C 74.5339 11.7683 75.1932 11.1013 76.0519 10.304C 76.6499 9.752 76.9566 9.46833 76.9719 9.453C 77.9532 8.51767 78.6662 7.64367 79.1109 6.831C 79.5709 6.01833 79.8009 5.22867 79.8009 4.462C 79.8009 3.45 79.5786 2.60667 79.1339 1.932C 78.7046 1.242 77.9839 0.897001 76.9719 0.897001C 76.3432 0.897001 75.7836 1.05033 75.2929 1.357C 74.8022 1.66367 74.4726 2.05467 74.3039 2.53C 74.5799 2.82133 74.7179 3.15867 74.7179 3.542C 74.7179 3.80267 74.6259 4.048 74.4419 4.278C 74.2579 4.508 73.9896 4.623 73.6369 4.623C 73.2996 4.623 73.0312 4.508 72.8319 4.278C 72.6326 4.03267 72.5329 3.726 72.5329 3.358C 72.5329 2.88267 72.7169 2.38433 73.0849 1.863C 73.4682 1.34167 74.0202 0.904667 74.7409 0.552001C 75.4769 0.184 76.3432 0 77.3399 0Z"/>
<path id="path7_fill" d="M 94.6108 0C 96.0062 0 97.1332 0.414 97.9918 1.242C 98.8505 2.05467 99.4638 3.08967 99.8318 4.347C 100.2 5.60433 100.384 6.946 100.384 8.372C 100.384 9.752 100.177 11.086 99.7628 12.374C 99.3642 13.662 98.7202 14.7277 97.8308 15.571C 96.9568 16.4143 95.8528 16.836 94.5188 16.836C 92.3875 16.836 90.8772 16.0233 89.9878 14.398C 89.0985 12.7727 88.6538 10.8023 88.6538 8.487C 88.6538 7.09167 88.8608 5.75 89.2748 4.462C 89.7042 3.15867 90.3635 2.093 91.2528 1.265C 92.1422 0.421668 93.2615 0 94.6108 0ZM 94.5648 0.874001C 93.3382 0.874001 92.4412 1.57167 91.8738 2.967C 91.3065 4.36233 91.0228 6.04133 91.0228 8.004C 91.0228 10.0587 91.2912 11.8987 91.8278 13.524C 92.3798 15.134 93.3228 15.939 94.6568 15.939C 95.8528 15.939 96.7115 15.2567 97.2328 13.892C 97.7542 12.512 98.0148 10.833 98.0148 8.855C 98.0148 6.647 97.7465 4.76867 97.2098 3.22C 96.6885 1.656 95.8068 0.874001 94.5648 0.874001Z"/>
<path id="path8_fill" d="M 110.984 13.961C 110.984 14.7277 110.961 15.2567 110.915 15.548L 112.847 15.456L 112.847 16.468L 106.982 16.468L 106.982 15.709C 107.734 15.6783 108.255 15.4483 108.546 15.019C 108.838 14.5897 108.983 13.9457 108.983 13.087L 108.96 2.231L 108.914 2.231L 106.154 4.002L 105.694 3.335L 110.179 0L 110.961 0L 110.984 13.961Z"/>
<path id="path9_fill" d="M 127.431 1.932C 126.725 3.37333 126.127 4.76867 125.637 6.118C 125.161 7.452 124.755 8.74767 124.418 10.005C 124.08 11.2623 123.62 13.0717 123.038 15.433C 122.792 16.3683 122.394 16.836 121.842 16.836C 121.259 16.836 120.968 16.4987 120.968 15.824C 120.968 15.456 121.075 14.9653 121.29 14.352C 121.504 13.7233 121.811 12.926 122.21 11.96L 122.532 11.132L 122.831 10.373C 123.613 8.41033 124.249 6.82333 124.74 5.612C 125.246 4.40067 125.79 3.18167 126.373 1.955L 120.301 1.978C 118.997 2.00867 118.346 2.60667 118.346 3.772L 117.794 3.772L 117.794 0.368001L 127.431 0.368001L 127.431 1.932Z"/>
<path id="path10_fill" d="M 32.25 15.81C 32.25 16.0767 31.9 16.21 31.2 16.21C 30.5333 16.21 29.85 15.8767 29.15 15.21C 28.4833 14.51 28.15 13.6767 28.15 12.71C 28.15 11.71 28.45 10.81 29.05 10.01C 30.3167 8.27667 32.4333 7.04333 35.4 6.31C 37.5333 5.77667 39.6667 5.51 41.8 5.51L 42.2 5.51C 42.5 5.51 43.3167 5.56 44.65 5.66C 44.5833 5.22667 44.75 4.82667 45.15 4.46C 45.5833 4.06 46.0667 3.86 46.6 3.86C 47.6 3.86 48.0833 4.57667 48.05 6.01C 51.65 6.64333 53.55 7.61 53.75 8.91C 53.7833 9.21 53.8 9.46 53.8 9.66C 53.8 10.3267 53.6 10.66 53.2 10.66C 52.8333 10.66 52.7167 10.26 52.85 9.46C 52.0167 8.22667 50.3667 7.36 47.9 6.86C 47.3 9.56 44.1667 15.4267 38.5 24.46C 34.7333 30.3933 30.35 35.36 25.35 39.36C 19.6167 43.8933 14.2167 46.16 9.15 46.16C 6.05 46.16 3.75 45.3767 2.25 43.81C 0.75 42.2433 0 40.51 0 38.61C 0 36.6767 0.366666 35.0267 1.1 33.66C 2.86667 30.26 5.41667 27.61 8.75 25.71C 11.2167 24.2767 13.5 23.56 15.6 23.56C 17.8667 23.56 19.6333 24.11 20.9 25.21C 22.2 26.31 22.85 27.6933 22.85 29.36C 22.85 31.16 22.1833 32.7933 20.85 34.26C 20.0167 35.1933 19.35 35.66 18.85 35.66C 18.7167 35.66 18.65 35.61 18.65 35.51C 18.65 35.3767 18.7 35.21 18.8 35.01C 20 33.2433 20.6 31.61 20.6 30.11C 20.6 28.5767 20.1833 27.3267 19.35 26.36C 18.3833 25.3267 17.0667 24.81 15.4 24.81C 13.7667 24.81 11.9333 25.4767 9.9 26.81C 7.4 28.4433 5.35 30.8933 3.75 34.16C 2.91667 35.7933 2.5 37.4933 2.5 39.26C 2.5 40.9933 3.15 42.3933 4.45 43.46C 5.75 44.56 7.5 45.11 9.7 45.11C 18.1667 45.11 27.0167 37.6767 36.25 22.81C 41.7833 13.9433 44.6167 8.51 44.75 6.51C 42.75 6.41 41.7 6.36 41.6 6.36C 40.0333 6.36 38.0167 6.79333 35.55 7.66C 33.1167 8.52667 31.5333 9.59333 30.8 10.86C 30.5 11.36 30.35 11.91 30.35 12.51C 30.35 13.11 30.6667 13.7767 31.3 14.51C 31.9333 15.2433 32.25 15.6767 32.25 15.81Z"/>
<path id="path11_fill" d="M 52.2133 29.06C 52.2133 30.2267 51.0966 32.1767 48.8633 34.91C 46.2299 38.1433 43.9799 39.76 42.1133 39.76L 41.3133 39.76C 40.4466 39.76 39.7633 39.31 39.2633 38.41C 38.8633 37.7767 38.6633 37.0767 38.6633 36.31C 38.6633 34.31 40.1133 31.51 43.0133 27.91C 45.9466 24.2767 48.3133 22.46 50.1133 22.46C 51.8133 22.46 52.6633 23.36 52.6633 25.16C 52.6633 25.6267 52.5799 26.2267 52.4133 26.96C 52.4466 27.06 52.7633 27.11 53.3633 27.11C 53.9633 27.11 54.8799 26.7933 56.1133 26.16C 56.0799 26.7267 54.7633 27.5433 52.1633 28.61C 52.1966 28.7433 52.2133 28.8933 52.2133 29.06ZM 48.9633 26.46C 47.8299 26.46 46.2133 27.7933 44.1133 30.46C 42.0466 33.1267 41.0133 35.0933 41.0133 36.36C 41.0133 37.6267 41.4133 38.26 42.2133 38.26C 43.6466 38.26 45.4633 36.96 47.6633 34.36C 49.8633 31.76 50.9633 29.8933 50.9633 28.76C 50.4299 28.46 49.7633 27.6933 48.9633 26.46Z"/>
<path id="path12_fill" d="M 69.8758 24.71L 70.5758 24.56C 70.9424 24.56 71.2925 24.71 71.6258 25.01C 71.9591 25.31 72.1258 25.5433 72.1258 25.71C 72.1258 25.8767 71.0925 27.4933 69.0258 30.56C 66.9591 33.5933 65.9258 35.71 65.9258 36.91C 65.9258 37.01 65.9425 37.11 65.9758 37.21C 66.1425 37.9767 66.5091 38.36 67.0758 38.36C 68.8091 38.36 71.9758 35.4933 76.5758 29.76C 76.6758 29.6267 76.7924 29.56 76.9258 29.56C 77.0591 29.56 77.1258 29.6933 77.1258 29.96C 77.1258 30.1933 76.9758 30.51 76.6758 30.91C 72.4091 36.61 69.1591 39.46 66.9258 39.46C 66.6258 39.46 66.3424 39.41 66.0758 39.31C 64.6091 38.7433 63.8758 37.6433 63.8758 36.01C 63.8758 35.4433 63.9425 34.8767 64.0758 34.31L 60.9758 37.31C 59.0091 39.0433 57.5758 39.91 56.6758 39.91C 55.8091 39.91 54.9758 39.6267 54.1758 39.06C 53.2758 38.3933 52.8258 37.51 52.8258 36.41C 52.8258 33.9767 54.5258 31.0767 57.9258 27.71C 61.3258 24.31 64.4425 22.61 67.2758 22.61C 68.3758 22.61 69.1091 22.9933 69.4758 23.76C 69.5758 24.0267 69.6591 24.26 69.7258 24.46C 69.7925 24.6267 69.8425 24.71 69.8758 24.71ZM 54.9258 37.01C 54.9258 38.21 55.3424 38.81 56.1758 38.81C 58.1091 38.81 60.7424 36.6933 64.0758 32.46L 69.3758 25.16C 69.1091 24.6933 68.6758 24.46 68.0758 24.46C 66.0424 24.46 63.3424 26.0433 59.9758 29.21C 56.6091 32.3433 54.9258 34.9433 54.9258 37.01Z"/>
<path id="path13_fill" d="M 83.0312 38.91C 82.0646 39.4767 80.8646 39.76 79.4313 39.76C 78.0313 39.76 76.9479 39.2933 76.1813 38.36C 75.4479 37.4267 74.8146 35.9433 74.2812 33.91C 73.6813 34.51 73.2646 34.81 73.0312 34.81C 72.8646 34.81 72.7812 34.6933 72.7812 34.46C 72.7812 34.2267 72.8646 34.0267 73.0312 33.86C 74.1313 32.4933 75.9979 30.5267 78.6313 27.96L 84.9313 22.06C 86.7313 20.36 87.7979 19.51 88.1313 19.51C 89.1979 19.51 89.7313 19.91 89.7313 20.71C 89.7313 21.11 89.5646 21.51 89.2313 21.91C 88.9313 22.2767 88.6979 22.5767 88.5312 22.81C 88.3979 23.01 88.2479 23.21 88.0813 23.41C 87.4813 24.4433 86.8646 26.5767 86.2313 29.81C 85.6313 33.0433 85.1646 35.2933 84.8313 36.56C 87.5979 36.5267 90.4479 34.7267 93.3813 31.16C 93.7146 30.8267 93.9646 30.66 94.1313 30.66C 94.2979 30.66 94.3813 30.7767 94.3813 31.01C 94.3813 31.21 94.2313 31.4933 93.9313 31.86C 91.9979 34.1267 90.1979 35.71 88.5312 36.61C 87.5312 37.11 86.2313 37.5267 84.6313 37.86L 83.0312 38.91ZM 76.2812 33.36C 76.2812 34.4933 76.6479 35.4267 77.3813 36.16C 78.1479 36.86 78.9979 37.21 79.9313 37.21C 80.8646 37.21 81.5813 37.0267 82.0813 36.66C 82.7479 36.2933 83.3979 34.76 84.0312 32.06C 84.6979 29.36 85.0979 26.9767 85.2313 24.91L 85.4313 23.21C 83.5979 24.5767 81.6313 26.3433 79.5312 28.51C 77.4646 30.6767 76.3979 32.11 76.3313 32.81C 76.2979 33.01 76.2812 33.1933 76.2812 33.36Z"/>
<path id="path14_fill" d="M 103.65 39.46C 101.683 39.46 100.7 38.31 100.7 36.01C 100.7 34.71 101.15 33.2767 102.05 31.71C 102.983 30.11 104.117 28.2433 105.45 26.11C 101.183 28.2433 97.3167 31.3933 93.85 35.56C 91.9167 38.46 90.7833 39.91 90.45 39.91C 89.4833 39.91 89 39.6267 89 39.06C 89 38.76 89.2 38.2267 89.6 37.46C 92.8333 31.6933 95.2833 27.4767 96.95 24.81C 100.917 18.4433 103.717 14.9933 105.35 14.46C 105.417 14.4267 105.483 14.41 105.55 14.41C 105.983 14.41 106.283 14.76 106.45 15.46C 106.35 16.16 104.617 18.6933 101.25 23.06C 97.75 27.4933 95.7667 30.3933 95.3 31.76C 96.5333 30.86 98.6833 29.3433 101.75 27.21C 105.05 24.91 107.233 23.76 108.3 23.76C 109.367 23.76 109.9 24.1767 109.9 25.01C 109.9 25.1433 109.883 25.2433 109.85 25.31C 109.85 25.3433 108.7 26.91 106.4 30.01C 104.1 33.11 102.95 35.3933 102.95 36.86C 102.95 37.6267 103.233 38.01 103.8 38.01C 105.6 37.9433 108.3 35.7767 111.9 31.51C 112.2 31.21 112.417 31.06 112.55 31.06C 112.717 31.06 112.8 31.16 112.8 31.36C 112.8 32.0267 111.15 33.8267 107.85 36.76C 105.783 38.56 104.383 39.46 103.65 39.46Z"/>
<path id="path15_fill" d="M 143.911 12.96C 146.151 12.96 147.271 13.42 147.271 14.34C 147.271 14.58 147.191 14.78 147.031 14.94C 146.511 15.82 145.371 16.26 143.611 16.26C 141.891 16.26 140.331 15.74 138.931 14.7C 136.771 15.34 134.251 16.7 131.371 18.78C 126.891 22.1 124.651 25.36 124.651 28.56C 124.651 32.12 127.071 34.1 131.911 34.5C 132.871 28.58 135.751 24.14 140.551 21.18C 142.111 20.18 143.791 19.48 145.591 19.08C 147.391 18.64 148.611 18.36 149.251 18.24C 149.931 18.08 151.051 17.88 152.611 17.64C 154.211 17.36 155.131 17.2 155.371 17.16C 159.091 16.52 161.471 15.8 162.511 15C 163.591 14.2 164.131 13.44 164.131 12.72C 164.131 12.52 164.091 12.3 164.011 12.06C 163.971 11.82 164.031 11.68 164.191 11.64C 164.351 11.6 164.531 11.66 164.731 11.82C 165.051 12.26 165.211 12.8 165.211 13.44C 165.211 14.08 164.811 14.86 164.011 15.78C 162.811 16.98 161.151 17.82 159.031 18.3C 158.231 18.5 157.151 18.74 155.791 19.02C 154.471 19.26 153.511 19.46 152.911 19.62C 153.671 20.34 154.051 21.42 154.051 22.86C 154.051 25.82 152.291 28.72 148.771 31.56C 144.891 34.68 139.691 36.24 133.171 36.24C 133.131 36.56 133.111 37.06 133.111 37.74C 133.111 40.54 134.031 42.74 135.871 44.34C 137.751 45.98 140.111 46.8 142.951 46.8C 143.951 46.8 144.811 46.46 145.531 45.78C 146.251 45.14 146.611 44.4 146.611 43.56C 146.611 43.28 146.531 42.96 146.371 42.6C 146.211 42.24 146.351 42.06 146.791 42.06C 147.271 42.06 147.511 42.58 147.511 43.62C 147.511 44.7 147.051 45.64 146.131 46.44C 145.211 47.28 144.151 47.7 142.951 47.7C 139.831 47.7 137.231 46.84 135.151 45.12C 132.791 43.24 131.611 40.78 131.611 37.74C 131.611 37.06 131.631 36.54 131.671 36.18C 128.191 35.86 125.551 34.98 123.751 33.54C 122.111 32.14 121.291 30.6 121.291 28.92C 121.291 25.04 124.251 21.34 130.171 17.82C 132.931 16.14 135.631 14.88 138.271 14.04C 137.151 12.8 136.591 11.18 136.591 9.18C 136.591 8.14 136.831 7.28 137.311 6.6C 138.631 4.72 140.631 3.22 143.311 2.1C 146.471 0.699999 149.671 0 152.911 0C 157.191 0 159.291 1.34 159.211 4.02C 159.131 5.18 158.631 6.2 157.711 7.08C 156.831 7.92 155.851 8.34 154.771 8.34C 153.691 8.34 153.151 8.06 153.151 7.5C 153.151 7.1 153.411 6.9 153.931 6.9L 154.951 7.08C 155.511 7.08 156.051 6.74 156.571 6.06C 157.131 5.38 157.411 4.7 157.411 4.02C 157.411 2.94 156.791 2.16 155.551 1.68C 154.751 1.4 153.991 1.26 153.271 1.26C 149.911 1.26 147.111 1.96 144.871 3.36C 142.631 4.76 140.991 6.32 139.951 8.04C 139.351 9.04 139.051 10.08 139.051 11.16C 139.051 12.24 139.291 13.06 139.771 13.62C 141.331 13.18 142.711 12.96 143.911 12.96ZM 152.071 22.44C 152.071 20.68 151.311 19.8 149.791 19.8C 149.311 19.8 148.331 19.98 146.851 20.34C 139.131 23.22 134.631 27.96 133.351 34.56C 134.231 34.56 135.111 34.5 135.991 34.38C 141.151 33.82 145.251 32.18 148.291 29.46C 150.811 27.18 152.071 24.84 152.071 22.44ZM 145.471 14.52C 145.471 14.16 144.931 13.98 143.851 13.98C 142.811 13.98 141.691 14.1 140.491 14.34C 141.491 14.98 142.571 15.3 143.731 15.3C 144.891 15.3 145.471 15.04 145.471 14.52Z"/>
<path id="path16_fill" d="M 176.999 36.31C 176.999 32.71 178.066 29.1433 180.199 25.61C 177.732 24.0433 176.499 21.7267 176.499 18.66C 176.499 14.96 178.132 11.6767 181.399 8.81C 185.066 5.57667 189.799 3.96 195.599 3.96C 198.265 3.96 201.132 4.34333 204.199 5.11C 204.899 5.27667 207.882 6.57667 213.149 9.01C 218.416 11.41 222.199 12.61 224.499 12.61C 226.032 12.61 227.182 12.1767 227.949 11.31C 228.349 10.8767 228.549 10.41 228.549 9.91C 228.549 9.41 228.332 8.96 227.899 8.56C 227.665 8.22667 227.549 8.01 227.549 7.91C 227.549 7.81 227.632 7.76 227.799 7.76C 227.999 7.76 228.315 8.06 228.749 8.66C 229.215 9.22667 229.449 9.91 229.449 10.71C 229.449 11.4767 228.915 12.2267 227.849 12.96C 226.816 13.66 225.499 14.01 223.899 14.01C 221.399 14.01 217.515 12.81 212.249 10.41C 206.982 7.97667 203.665 6.62667 202.299 6.36C 200.965 6.09333 199.432 5.96 197.699 5.96C 190.799 5.96 185.366 8.19333 181.399 12.66C 180.932 13.16 180.382 14.1767 179.749 15.71C 179.115 17.21 178.799 18.66 178.799 20.06C 178.799 21.9933 179.482 23.4933 180.849 24.56C 182.582 22.0267 184.632 20.01 186.999 18.51C 189.365 17.01 191.766 16.26 194.199 16.26C 197.199 16.26 198.699 17.4267 198.699 19.76C 198.699 22.56 197.049 25.61 193.749 28.91C 190.482 32.1767 187.449 33.81 184.649 33.81C 182.849 33.81 181.949 33.0433 181.949 31.51C 181.949 30.9767 182.082 30.51 182.349 30.11C 182.649 29.71 182.999 29.56 183.399 29.66L 183.299 30.81C 183.299 31.31 184.065 31.56 185.599 31.56C 187.865 31.56 190.249 30.3933 192.749 28.06C 195.282 25.7267 196.815 23.4433 197.349 21.21C 197.482 20.71 197.549 20.26 197.549 19.86C 197.549 18.36 196.582 17.61 194.649 17.61C 192.749 17.61 190.766 18.3433 188.699 19.81C 186.666 21.2767 184.749 23.21 182.949 25.61C 183.082 25.6767 183.599 25.81 184.499 26.01L 187.499 26.11C 188.965 26.1767 189.699 26.3433 189.699 26.61C 189.699 27.0767 188.999 27.31 187.599 27.31C 187.499 27.31 187.399 27.31 187.299 27.31C 185.265 27.31 183.599 27.06 182.299 26.56C 179.732 30.4933 178.449 34.11 178.449 37.41C 178.449 41.6767 180.099 43.81 183.399 43.81C 187.132 43.81 191.015 41.21 195.049 36.01L 204.849 21.41C 208.516 16.0767 211.699 13.3433 214.399 13.21L 216.299 13.66C 216.899 13.9933 217.199 14.4933 217.199 15.16C 217.199 15.8267 217.032 16.16 216.699 16.16L 215.099 15.91C 212.799 15.91 209.849 18.3933 206.249 23.36L 196.299 37.26C 192.032 42.2267 187.949 44.71 184.049 44.71C 181.382 44.71 179.532 43.9933 178.499 42.56C 177.499 41.1267 176.999 39.0433 176.999 36.31Z"/>
<path id="path17_fill" d="M 225.305 24.71L 226.005 24.56C 226.372 24.56 226.722 24.71 227.055 25.01C 227.389 25.31 227.555 25.5433 227.555 25.71C 227.555 25.8767 226.522 27.4933 224.455 30.56C 222.389 33.5933 221.355 35.71 221.355 36.91C 221.355 37.01 221.372 37.11 221.405 37.21C 221.572 37.9767 221.939 38.36 222.505 38.36C 224.239 38.36 227.405 35.4933 232.005 29.76C 232.105 29.6267 232.222 29.56 232.355 29.56C 232.489 29.56 232.555 29.6933 232.555 29.96C 232.555 30.1933 232.405 30.51 232.105 30.91C 227.839 36.61 224.589 39.46 222.355 39.46C 222.055 39.46 221.772 39.41 221.505 39.31C 220.039 38.7433 219.305 37.6433 219.305 36.01C 219.305 35.4433 219.372 34.8767 219.505 34.31L 216.405 37.31C 214.439 39.0433 213.005 39.91 212.105 39.91C 211.239 39.91 210.405 39.6267 209.605 39.06C 208.705 38.3933 208.255 37.51 208.255 36.41C 208.255 33.9767 209.955 31.0767 213.355 27.71C 216.755 24.31 219.872 22.61 222.705 22.61C 223.805 22.61 224.539 22.9933 224.905 23.76C 225.005 24.0267 225.089 24.26 225.155 24.46C 225.222 24.6267 225.272 24.71 225.305 24.71ZM 210.355 37.01C 210.355 38.21 210.772 38.81 211.605 38.81C 213.539 38.81 216.172 36.6933 219.505 32.46L 224.805 25.16C 224.539 24.6933 224.105 24.46 223.505 24.46C 221.472 24.46 218.772 26.0433 215.405 29.21C 212.039 32.3433 210.355 34.9433 210.355 37.01Z"/>
<path id="path18_fill" d="M 253.161 39.06C 250.894 39.06 249.761 38.01 249.761 35.91C 249.761 34.71 250.294 33.0767 251.361 31.01C 252.428 28.91 253.544 27.1433 254.711 25.71C 252.644 26.71 250.261 28.5267 247.561 31.16C 244.861 33.76 242.978 36.4933 241.911 39.36C 241.744 39.6267 241.461 39.76 241.061 39.76C 240.261 39.76 239.861 39.31 239.861 38.41C 240.194 36.5767 240.944 34.4767 242.111 32.11C 242.478 31.3433 243.561 29.11 245.361 25.41C 242.761 27.11 240.544 28.9433 238.711 30.91C 236.911 32.8433 235.228 34.7933 233.661 36.76C 232.128 38.7267 231.261 39.71 231.061 39.71C 230.628 39.71 230.244 39.51 229.911 39.11C 229.611 38.71 229.461 38.31 229.461 37.91C 229.461 37.31 230.328 35.11 232.061 31.31L 229.061 34.46C 228.328 35.1933 227.878 35.56 227.711 35.56C 227.511 35.56 227.411 35.46 227.411 35.26C 227.411 35.0267 227.544 34.7767 227.811 34.51C 229.044 33.2767 230.144 32.0433 231.111 30.81C 232.078 29.5767 233.678 27.3767 235.911 24.21C 236.278 23.71 236.794 23.46 237.461 23.46C 238.128 23.46 238.461 23.7767 238.461 24.41C 238.461 24.6433 237.578 26.2767 235.811 29.31C 234.044 32.31 233.061 34.1933 232.861 34.96C 234.228 33.46 236.278 31.4433 239.011 28.91C 243.111 25.11 245.811 23.21 247.111 23.21C 247.511 23.21 247.878 23.3267 248.211 23.56C 248.544 23.7933 248.711 24.06 248.711 24.36C 248.711 24.6267 248.061 25.8767 246.761 28.11C 245.494 30.41 244.794 31.7767 244.661 32.21C 248.361 29.11 250.211 27.5433 250.211 27.51C 253.344 25.0767 255.594 23.86 256.961 23.86C 257.361 23.86 257.728 23.9933 258.061 24.26C 258.428 24.4933 258.611 24.7767 258.611 25.11C 258.611 25.1767 257.528 26.5933 255.361 29.36C 253.194 32.0933 251.978 34.3433 251.711 36.11C 251.644 36.71 251.761 37.16 252.061 37.46C 252.361 37.76 252.894 37.91 253.661 37.91C 254.461 37.91 255.611 37.3767 257.111 36.31C 258.644 35.21 260.194 33.7433 261.761 31.91C 262.361 31.2433 262.761 30.91 262.961 30.91C 263.194 30.91 263.311 30.9933 263.311 31.16C 263.311 31.3933 263.161 31.66 262.861 31.96C 261.228 33.9267 259.461 35.61 257.561 37.01C 255.694 38.3767 254.228 39.06 253.161 39.06Z"/>
<path id="path19_fill" d="M 270.004 38.91C 269.037 39.4767 267.837 39.76 266.404 39.76C 265.004 39.76 263.921 39.2933 263.154 38.36C 262.421 37.4267 261.787 35.9433 261.254 33.91C 260.654 34.51 260.237 34.81 260.004 34.81C 259.837 34.81 259.754 34.6933 259.754 34.46C 259.754 34.2267 259.837 34.0267 260.004 33.86C 261.104 32.4933 262.971 30.5267 265.604 27.96L 271.904 22.06C 273.704 20.36 274.771 19.51 275.104 19.51C 276.171 19.51 276.704 19.91 276.704 20.71C 276.704 21.11 276.537 21.51 276.204 21.91C 275.904 22.2767 275.671 22.5767 275.504 22.81C 275.371 23.01 275.221 23.21 275.054 23.41C 274.454 24.4433 273.837 26.5767 273.204 29.81C 272.604 33.0433 272.137 35.2933 271.804 36.56C 274.571 36.5267 277.421 34.7267 280.354 31.16C 280.687 30.8267 280.937 30.66 281.104 30.66C 281.271 30.66 281.354 30.7767 281.354 31.01C 281.354 31.21 281.204 31.4933 280.904 31.86C 278.971 34.1267 277.171 35.71 275.504 36.61C 274.504 37.11 273.204 37.5267 271.604 37.86L 270.004 38.91ZM 263.254 33.36C 263.254 34.4933 263.621 35.4267 264.354 36.16C 265.121 36.86 265.971 37.21 266.904 37.21C 267.837 37.21 268.554 37.0267 269.054 36.66C 269.721 36.2933 270.371 34.76 271.004 32.06C 271.671 29.36 272.071 26.9767 272.204 24.91L 272.404 23.21C 270.571 24.5767 268.604 26.3433 266.504 28.51C 264.437 30.6767 263.371 32.11 263.304 32.81C 263.271 33.01 263.254 33.1933 263.254 33.36Z"/>
<path id="path20_fill" d="M 289.623 19.26C 290.123 19.26 290.589 19.4267 291.023 19.76C 291.489 20.06 291.723 20.4267 291.723 20.86C 291.723 21.2933 291.506 21.6767 291.073 22.01C 290.673 22.31 290.223 22.46 289.723 22.46C 289.223 22.46 288.756 22.2767 288.323 21.91C 287.923 21.5433 287.723 21.1267 287.723 20.66C 287.723 19.7267 288.356 19.26 289.623 19.26ZM 280.573 40.21C 278.873 40.21 278.023 39.11 278.023 36.91C 278.023 35.11 279.006 32.6267 280.973 29.46C 282.939 26.26 284.523 24.6433 285.723 24.61C 286.056 24.61 286.423 24.7433 286.823 25.01C 287.256 25.2767 287.473 25.5433 287.473 25.81C 287.306 26.0433 287.106 26.31 286.873 26.61C 286.639 26.8767 286.389 27.1767 286.123 27.51C 285.856 27.8433 285.489 28.3267 285.023 28.96C 284.556 29.56 284.106 30.1433 283.673 30.71C 281.173 33.9433 279.923 36.1767 279.923 37.41C 279.923 38.61 280.339 39.21 281.173 39.21C 281.873 39.21 282.823 38.8267 284.023 38.06C 286.823 36.3267 289.039 34.4267 290.673 32.36C 291.273 31.5933 291.673 31.21 291.873 31.21C 292.106 31.21 292.223 31.3433 292.223 31.61C 292.223 31.8767 291.839 32.41 291.073 33.21C 290.306 34.01 289.689 34.6433 289.223 35.11C 288.789 35.5767 288.489 35.8933 288.323 36.06C 288.156 36.1933 287.839 36.4767 287.373 36.91C 286.939 37.31 286.606 37.5933 286.373 37.76C 286.139 37.9267 285.806 38.1767 285.373 38.51C 284.939 38.8433 284.556 39.0933 284.223 39.26C 283.889 39.3933 283.506 39.56 283.073 39.76C 282.373 40.06 281.539 40.21 280.573 40.21Z"/>
<path id="path21_fill" d="M 298.102 23.86C 299.002 23.86 299.452 24.21 299.452 24.91C 299.452 25.11 299.402 25.31 299.302 25.51C 296.302 29.6767 294.502 32.8267 293.902 34.96C 301.669 27.1933 306.385 23.31 308.052 23.31C 308.219 23.2767 308.369 23.26 308.502 23.26C 309.435 23.26 309.902 23.6767 309.902 24.51C 309.902 24.6767 309.869 24.8433 309.802 25.01C 309.735 25.1767 309.069 26.0767 307.802 27.71C 306.335 29.4433 305.085 31.11 304.052 32.71C 303.052 34.31 302.552 35.6433 302.552 36.71C 302.552 37.7767 302.785 38.31 303.252 38.31C 304.719 38.31 307.269 36.2933 310.902 32.26C 310.969 32.1933 311.085 32.0433 311.252 31.81C 311.752 31.21 312.052 30.91 312.152 30.91C 312.252 30.91 312.302 31.0767 312.302 31.41C 312.302 31.7433 312.069 32.1767 311.602 32.71C 307.469 37.41 304.535 39.76 302.802 39.76C 301.169 39.76 300.352 38.86 300.352 37.06C 300.352 35.26 301.019 33.1933 302.352 30.86L 305.552 25.66C 303.285 27.3267 301.269 29.16 299.502 31.16C 297.735 33.1267 296.119 35.0433 294.652 36.91C 293.219 38.7767 292.385 39.71 292.152 39.71C 291.652 39.71 291.252 39.51 290.952 39.11C 290.685 38.6767 290.552 38.16 290.552 37.56C 290.552 36.9267 290.769 36.0933 291.202 35.06C 291.635 34.0267 292.185 32.7767 292.852 31.31L 289.852 34.46C 289.119 35.1933 288.669 35.56 288.502 35.56C 288.302 35.56 288.202 35.46 288.202 35.26C 288.202 35.0267 288.335 34.7767 288.602 34.51C 289.835 33.2767 290.902 32.0933 291.802 30.96C 292.669 29.8267 294.452 27.66 297.152 24.46C 297.452 24.06 297.769 23.86 298.102 23.86Z"/>
<path id="path22_fill" fill-rule="evenodd" d="M 299.321 76.3031C 299.427 74.8875 300.37 74.3127 300.152 72.5723C 298.536 71.6887 295.791 69.7465 293.915 70.4963C 296.218 71.9368 296.628 75.2588 299.321 76.3031ZM 225.321 55.9836C 221.862 55.9497 220.726 47.5794 221.162 43.5452C 210.751 25.5462 179.723 25.864 157.142 31.5155C 159.011 36.6494 170.336 33.7737 171.277 38.5666C 172.659 45.598 162.121 44.4234 161.717 38.1507C 158.379 36.9564 152.508 32.4705 148.829 35.6623C 158.933 42.1742 166.283 51.4316 169.614 64.693C 157.014 59.8501 143.236 54.4234 143.842 37.7401C 127.517 38.904 118.042 50.407 105.593 56.8136C 111.246 55.3767 115.244 58.5648 119.728 57.6419C 123.601 56.8476 128.286 48.588 131.369 55.1571C 130.199 57.583 127.742 58.7272 125.549 60.1321C 126.701 63.1185 129.856 67.9275 124.716 68.8397C 122.348 67.4723 122.126 63.9557 120.558 61.7904C 108.685 58.4845 94.8725 60.0946 91.0445 69.2521C 98.16 68.9325 103.998 69.8786 109.335 71.3281C 110.102 67.5527 116.693 64.3181 117.65 68.4256C 118.534 72.2046 114.08 71.3424 113.493 74.643C 117.346 75.0339 122.917 81.1407 118.064 83.7683C 113.406 83.4149 109.382 78.904 107.258 74.643C 99.4148 72.8258 90.321 70.4641 84.392 73.8129C 75.2731 78.9754 66.2464 90.8408 63.1924 99.9429C 67.0202 96.9886 70.7469 93.9325 76.0755 92.4777C 76.7011 91.0264 76.3398 88.5951 77.7392 87.9132C 90.4323 84.2628 87.583 101.159 76.4914 95.7962C 70.4183 99.8269 61.5427 101.066 59.8664 109.479C 62.2229 109.761 63.2749 108.734 65.2672 108.649C 70.1576 99.568 86.898 104.741 96.0315 104.086C 94.9598 107.708 91.3836 110.411 88.5512 111.969C 85.534 113.624 80.1474 116.101 76.0755 116.116C 72.0938 116.125 68.3688 113.317 64.436 112.797C 56.4118 111.737 54.4481 117.981 52.3812 123.163C 50.6644 127.463 49.3256 131.164 48.6406 135.605C 56.0546 133.602 62.7359 130.864 71.0872 129.798C 73.6912 127.283 75.6043 124.077 80.2347 123.579C 84.4059 126.184 79.3813 129.989 77.7392 131.871C 79.619 132.622 80.627 134.245 81.4797 136.019C 78.2047 144.452 74.3587 134.179 69.8408 133.531C 67.8165 133.242 64.2599 134.252 62.3605 134.779C 57.0297 136.242 52.1876 139.032 46.9769 140.998C 45.3881 144.664 43.2609 147.794 43.235 153.024C 48.0926 151.233 53.0773 149.568 57.7847 147.631C 59.8532 144.182 62.7862 137.576 68.1764 140.164C 69.8899 143.365 66.1437 144.413 65.6845 146.801C 67.1895 148.202 70.1324 148.169 69.4257 151.782C 66.6798 154.907 60.8975 151.849 58.6172 150.534C 53.2173 153.438 46.2129 154.748 41.1554 158.003C 39.5876 167.815 37.187 180.898 39.9083 191.175C 42.6325 190.85 43.8033 188.977 45.7292 187.856C 48.3491 174.712 60.5074 171.084 73.9974 168.783C 67.7081 177.944 62.6289 192.419 47.806 190.344C 45.4202 191.835 43.2609 193.551 41.5713 195.735C 43.9921 215.577 50.7531 231.089 58.6172 245.5C 60.0649 241.771 57.8162 236.523 59.0338 233.058C 55.8261 231.248 55.1459 226.337 55.7079 222.69C 57.2093 212.919 68.814 208.135 73.5849 201.956C 74.9941 216.373 71.8653 229.811 61.9439 234.304C 62.0983 237.23 62.8834 240.664 62.3605 244.256C 62.0607 246.301 60.5991 247.792 60.6955 249.643C 61.001 255.511 68.8503 261.894 70.6728 266.232C 72.8809 257.97 61.3358 251.603 71.5031 248.818C 73.5437 248.991 72.7341 252.014 74.8284 252.135C 76.2153 251.212 80.3355 250.607 81.0667 252.549C 81.2839 257.19 77.0038 257.348 73.9974 258.769C 74.6663 263.34 73.2046 268.047 74.8284 272.037C 75.8749 274.6 79.7623 277.504 82.3129 279.92C 90.3652 287.538 100.981 294.886 109.335 300.239C 108.65 297.328 107.786 294.599 107.258 291.528C 97.2498 287.681 87.8262 264.618 99.7748 255.037C 99.0855 263.549 105.306 267.758 108.506 272.454C 110.624 275.564 112.712 280.12 111.831 286.139C 111.688 287.102 110.687 288.417 110.583 290.287C 109.633 307.065 127.786 311.491 142.594 313.091C 142.465 311.401 138.607 305.944 142.178 303.97C 147.893 304.625 149.547 309.336 151.738 313.509C 161.817 315.898 168.675 321.496 180.841 321.803C 179.851 317.533 176.383 315.745 174.188 312.677C 170.588 315.232 161.986 313.743 161.717 309.775C 161.507 306.671 165.533 305.134 170.031 306.459C 170.017 295.041 181.081 302.82 176.265 309.775C 179.782 313.734 183.158 317.831 186.244 322.217C 201.408 323.102 212.36 319.797 224.072 317.24C 219.121 312.212 192 311.685 199.132 301.069C 201.218 300.118 204.037 300.839 205.368 301.896C 206.046 303.556 206.053 305.725 206.2 306.871C 209.446 307.365 211.177 309.37 214.513 309.775C 215.951 304.234 210.976 304.461 211.603 300.239C 212.249 295.894 218.476 296.471 219.085 300.653C 219.523 303.652 216.377 306.494 218.671 310.605C 226.705 317.06 238.564 313.67 245.274 308.115C 234.884 301.614 213.766 301.41 217.837 283.238C 227.674 288.352 241.695 289.298 242.366 303.556C 250.371 308.383 260.56 302.571 265.646 298.163C 261.969 298.154 258.524 294.42 254.424 293.602C 252.808 293.283 251.255 294.195 249.852 293.602C 245.586 291.804 246.663 285.951 250.681 285.725C 254.974 285.486 256.155 293.914 260.661 291.946C 261.008 285.421 253.163 270.561 261.904 271.208C 263.905 271.357 265.675 273.714 265.646 275.772C 265.616 278.429 262.851 278.69 262.321 281.576C 261.477 286.178 264.186 289.565 264.401 294.429C 270.396 297.594 274.456 292.783 278.951 289.457C 282.294 286.981 286.134 284.87 288.513 282.82C 294.538 277.628 297.596 272.078 301.816 265.403C 306.177 258.502 310.286 251.983 312.211 243.424C 308.294 246.569 305.184 250.52 299.737 252.135C 297.308 255.816 293.285 261.791 287.265 259.182C 285.719 254.982 290.15 253.613 291.422 250.893C 289.894 249.354 285.828 245.888 289.758 243.842C 294.665 243.782 296.367 246.926 299.737 248.401C 306.184 245.016 311.59 240.596 315.534 234.716C 311.721 233.128 307.324 232.122 303.063 230.984C 301.533 234.161 300.461 237.792 295.164 237.206C 290.399 233.613 298.011 231.608 297.657 228.909C 297.423 227.132 293.659 227.253 293.915 224.35C 294.032 223.069 295.009 221.739 296.825 221.448C 301.385 220.716 301.963 225.12 305.558 227.669C 309.84 230.705 314.604 229.759 318.859 231.403C 327.406 222.504 331.021 208.695 333.41 193.659C 323.127 199.605 306.58 212.558 294.747 201.125C 302.761 194.522 316.077 186.942 328.004 191.587C 329.92 190.318 332.032 189.247 333.825 187.856C 334.394 181.43 334.906 171.989 332.997 166.705C 331.939 170.389 326.365 172.237 325.094 176.246C 324.128 179.298 325.978 184.9 320.107 183.293C 319.065 181.823 319.695 180.144 318.859 177.903C 315.579 178.668 312.371 178.64 311.793 176.246C 310.697 171.694 319.731 170.864 323.849 172.098C 326.851 168.595 330.192 165.428 332.578 161.316C 332.42 143.506 326.68 131.258 320.937 119.018C 319.207 123.999 321.171 129.225 321.354 132.701C 321.751 140.212 316.041 152.669 310.962 156.753C 308.922 158.392 304.797 159.702 302.233 159.655C 303.047 149.172 305.234 136.546 312.211 129.384C 313.638 127.917 316.025 127.356 316.78 125.652C 318.373 122.065 318.226 115.4 317.197 111.969C 315.994 107.949 312.065 103.904 310.13 101.185C 308.473 107.137 304.23 114.486 303.892 121.919C 303.702 126.142 306.653 131.744 301.401 133.531C 299.679 132.622 299.402 130.27 298.074 128.968C 295.903 129.83 293.412 131.217 291.007 130.63C 288.933 125.005 295.481 121.441 300.567 120.261C 303.3 112.62 304.452 103.401 308.468 97.0368C 305.284 93.0239 303.353 87.7669 299.737 84.1824C 296.136 88.3167 299.865 98.0935 293.915 99.111C 289.001 99.9518 286.152 89.7787 294.334 89.161C 295.195 86.1478 296.088 83.1667 297.242 80.4498C 290.975 72.1921 283.935 62.483 274.794 58.4755C 277.575 64.7715 284.291 77.8169 276.872 84.1824C 269.055 78.7897 265.746 64.4823 266.478 51.8404C 260.62 48.9718 254.691 46.1746 249.435 42.7169C 249.351 45.1392 250.704 47.542 248.184 48.1078C 244.118 47.0511 242.223 43.8236 241.951 38.9807C 235.287 34.5287 224.122 32.4884 214.93 31.9315C 217.61 35.4766 221.332 37.9847 224.072 41.4709C 227.227 40.1839 233.462 39.1539 234.467 43.1292C 233.718 46.1121 229.799 45.9318 226.986 46.8618C 228.53 50.282 228.913 56.0211 225.321 55.9836ZM 226.155 29.4431C 226.119 30.0875 227.361 29.7305 226.569 29.4431C 221.336 26.7744 215.466 22.3206 209.525 26.9564C 214.81 28.04 220.915 28.3113 226.155 29.4431ZM 241.534 314.338C 229.5 320.716 212.073 321.716 199.132 327.192C 193.677 331.151 188.593 335.48 182.5 338.808C 179.23 340.875 177.972 348.629 172.525 345.855C 171.481 344.387 171.936 341.981 172.94 340.46C 170.347 338.42 164.655 336.74 168.365 332.997C 173.021 331.594 175.691 335.837 179.592 335.901C 185.708 336.007 189.687 328.17 194.976 325.95C 188.053 326.978 181.374 324.295 175.435 324.706C 167.391 325.261 160.389 333.97 151.323 333.829C 150.192 337.233 149.591 341.769 146.337 342.124C 141.777 342.621 141.357 337.194 144.255 333.829C 142.248 331.974 138.33 332.397 138.435 329.265C 138.6 324.473 148.984 327.364 151.323 330.513C 157.585 328.873 163.072 326.473 167.951 323.459C 161.983 322.308 157.448 316.612 150.494 317.24C 146.604 317.592 139.593 324.766 138.852 316.824C 132.554 316.346 127.435 312.304 122.225 315.165C 117.476 317.774 115.588 330.603 112.245 336.314C 106.826 338.358 104 331.45 106.84 327.608C 108.341 326.903 110.498 326.312 111.831 327.608C 113.682 323.927 115.218 319.931 116.816 315.994C 111.502 315.574 102.714 321.972 101.852 315.58C 101.616 313.836 103.157 311.26 105.593 311.019C 107.699 310.811 108.715 313.199 110.583 313.509C 114.212 314.113 116.57 311.364 120.975 311.846C 117.696 309.177 113.388 307.53 109.75 305.213C 105.486 305.704 99.9935 304.318 96.4467 305.627C 92.0434 307.254 87.114 309.919 79.4008 309.363C 71.671 308.799 62.4934 306.747 58.6172 301.481C 69.2474 299.692 86.9336 292.919 94.7851 301.896C 97.6491 301.71 99.8335 300.853 103.099 301.069C 98.3781 296.651 90.9473 291.35 84.8078 286.969C 79.5232 288.756 71.3208 288.297 65.2672 290.701C 62.2592 291.896 59.7657 296.044 55.2906 293.188C 55.2298 289.674 56.9486 287.929 59.8664 287.381C 59.2911 285.11 57.3828 281.215 59.8664 279.506C 63.9013 279.62 63.5747 284.093 65.2672 286.555C 70.382 285.848 75.8651 285.569 80.6506 283.654C 78.5816 280.598 75.1529 278.906 73.1661 275.772C 66.1779 275.504 59.8224 274.051 54.4594 276.187C 50.5455 277.747 48.6372 285.333 43.235 281.576C 42.7568 278.931 43.2114 277.86 44.4843 276.187C 42.269 273.97 38.3342 273.47 38.2467 269.134C 42.0097 265.336 48.3856 270.444 51.55 272.454C 58.2886 272.222 63.7312 271.266 69.8408 271.625C 65.1847 265.627 61.6126 258.543 56.9542 252.549C 46.4241 255.464 25.3538 261.791 18.2929 251.303C 29.1139 247.617 43.1162 245.764 55.7079 249.23C 50.8503 239.134 32.4818 240.813 20.7849 238.865C 17.9154 239.552 18.3356 241.301 16.2125 241.353C 11.0594 241.473 9.87031 232.976 15.3822 232.642C 17.5345 232.515 17.5422 234.604 19.9539 235.542C 23.4281 236.901 28.6728 236.171 33.6723 236.788C 33.8611 234.247 30.0751 232.089 29.0992 229.325C 23.6174 231.78 19.8231 220.117 26.6037 219.786C 30.3471 219.604 30.2561 222.965 31.1788 226.423C 31.8535 228.95 35.0508 234.593 36.9991 235.959C 42.2354 239.638 47.4447 237.246 51.1341 240.107C 47.7263 227.61 42.004 217.423 39.0806 204.445C 34.3769 204.408 30.7141 199.723 25.7725 199.884C 24.218 199.934 22.6269 201.569 21.2023 201.541C 14.8788 201.419 13.9903 192.003 20.7849 192.003C 23.9621 192.003 23.7203 194.559 26.1898 196.152C 30.0919 198.654 35.0467 198.533 37.8308 200.3C 37.4506 196.664 36.5649 189.948 35.3353 185.783C 30.8224 185.958 27.5432 184.873 24.9441 187.026C 11.7842 185.539 3.61329 173.397 0 162.972C 10.5854 165.28 23.486 168.845 29.0992 177.488C 29.0992 178.734 29.0992 179.974 29.0992 181.219C 29.9276 182.881 33.0564 182.253 34.9207 182.881C 35.287 173.461 36.4216 165.559 38.6628 156.753C 40.0956 151.119 43.4279 143.977 43.235 140.164C 42.8667 132.861 32.8545 125.873 29.0992 121.089C 24.9925 121.062 18.8487 122.756 17.8748 119.432C 16.9011 116.096 20.8997 115.391 24.1117 114.454C 22.9877 111.35 23.5818 108.042 26.1898 106.578C 29.2308 108.526 32.4671 110.66 33.2543 114.454C 33.5576 115.9 32.8069 117.537 33.2543 119.018C 35.0522 124.909 43.507 128.22 44.4843 134.361C 44.8295 129.873 51.1019 123.527 50.7182 118.601C 50.5037 115.844 45.411 109.511 42.4061 107.819C 39.0878 105.957 32.0743 106.055 34.5041 99.5287C 36.2532 98.488 38.9911 98.488 40.7409 99.5287C 42.232 97.1332 41.2918 92.301 44.898 92.8936C 49.8004 93.6898 45.5404 101.034 46.1465 105.332C 46.8602 110.403 51.8016 110.773 51.55 114.043C 54.0755 110.148 58.2251 105.541 58.6172 99.9429C 58.9563 95.0446 55.991 89.5377 56.1245 84.1824C 56.2427 79.2431 57.8972 75.0446 59.0338 70.9122C 60.0776 67.11 60.4711 62.5473 63.6047 59.7162C 64.2284 68.3595 68.4337 73.4256 68.593 82.5259C 78.2872 76.3102 86.5142 69.5359 87.7165 54.7412C 88.1045 49.9714 86.2498 44.0218 89.794 40.6408C 92.1547 40.6391 92.5201 42.6241 93.1214 44.3734C 95.0403 43.7986 96.4907 42.7579 99.3561 43.1292C 101.561 49.0182 93.9294 50.5659 91.0445 53.0793C 90.182 57.4759 89.3131 61.8618 88.1331 65.9336C 96.8681 60.4124 103.431 49.1235 108.506 38.5666C 108.341 36.5816 105.944 37.0154 105.179 34.4216C 103.165 27.6009 109.481 21.694 110.999 29.4431C 112.863 27.658 115.204 24.3127 119.311 26.1282C 120.214 31.2228 114.612 32.9115 112.245 36.0782C 110.221 42.6348 107.105 48.0918 103.931 53.4952C 113.479 49.1949 120.871 42.7472 130.12 38.1507C 131.886 35.3517 133.592 32.492 133.03 27.3706C 130.26 25.2606 129.075 20.4124 132.618 19.0753C 134.826 18.2435 138.314 19.3431 138.852 21.9779C 139.301 24.1807 137.285 25.191 136.773 27.3706C 136.131 30.1035 137.336 32.3688 135.943 34.834C 140.852 34.4788 144.356 32.7205 147.58 30.689C 151.793 17.4741 159.213 7.45627 170.447 1.2442C 172.301 12.9186 167.001 21.0246 161.301 26.5423C 168.294 25.6337 176.666 24.4645 185.827 24.8822C 192.705 25.1946 200.107 25.9996 205.785 23.638C 212.787 20.7212 216.393 15.0553 221.162 10.3677C 221.284 5.64977 220.828 0.35523 225.321 0C 227.442 1.06569 226.925 4.7608 226.985 7.87754C 230.004 8.95752 234 7.45627 234.467 10.3677C 235.198 14.934 228.256 12.7633 223.659 14.1003C 219.457 15.3213 219.133 19.0307 217.005 19.4895C 225.849 19.4591 238.021 19.1628 247.356 18.2471C 249.526 14.8893 254.816 9.87861 259.412 12.8561C 260.179 16.6619 257.667 17.1974 256.502 19.0753C 259.748 19.2931 262.218 20.2856 262.736 23.2221C 258.562 28.6773 252.916 22.7437 248.184 21.9779C 245.523 21.5459 241.964 22.2171 239.041 22.3938C 233.947 22.6973 228.907 23.7504 223.242 23.2221C 229.886 27.6562 237.343 31.2745 244.031 35.6623C 246.878 34.3163 252.087 32.4688 255.255 34.0075C 256.328 36.9904 253.533 38.2756 251.511 39.3966C 254.336 42.2581 259.229 43.6594 263.987 46.03C 265.534 46.8083 266.428 48.3631 268.139 48.5166C 269.703 48.6594 294.708 40.0143 293.083 49.7644C 292.271 54.6644 280.771 52.6187 275.209 53.9093C 279.154 56.5423 283.677 58.8022 288.513 61.7904C 292.564 64.2949 297.51 68.3327 302.233 68.8397C 308.416 69.5038 316.009 64.9464 322.186 65.9336C 323.297 61.5262 329.863 60.6266 332.578 64.277C 333.161 67.3509 331.996 69.9179 329.668 70.4963C 327.283 71.096 325.465 69.1325 323.016 68.8397C 317.562 68.1828 311.979 71.4923 307.219 71.3281C 312.619 74.875 315.735 81.6708 324.681 80.4498C 327.598 81.7369 330.885 85.9675 328.421 89.9875C 324.036 92.2028 318.255 89.6091 318.444 84.5984C 314.384 80.4927 308.534 78.1721 304.309 74.2306C 303.054 75.88 302.662 78.3952 301.401 80.0357C 304.894 85.5355 308.677 90.7479 311.793 96.6262C 319.899 99.3181 328.408 101.616 337.152 103.674C 341.509 97.5473 357.662 105.343 345.466 109.063C 345.937 110.621 347.057 113.251 345.466 114.454C 340.881 115.055 337.565 111.08 336.737 106.578C 328.029 105.411 322.363 103.265 315.117 101.185C 317.643 108.217 322.057 114.672 330.5 117.36C 335.731 119.025 339.804 119.602 344.636 124.409C 346.368 126.134 347.501 128.513 349.208 130.214C 351.504 132.501 353.959 133.642 355.443 136.019C 358.009 140.13 360.453 145.694 361.679 150.948C 351.971 153.147 347.3 145.889 342.558 140.998C 337.612 135.896 331.934 129.373 329.668 121.501C 328.906 120.191 327.376 119.643 325.926 119.018C 328.025 127.965 333.061 137.986 335.488 148.047C 336.701 153.074 336.162 158.163 338.397 162.147C 342.114 168.768 348.988 171.957 353.782 177.073C 358.644 177.198 363.671 177.16 362.926 182.881C 360.942 184.387 358.215 184.894 355.86 183.293C 355.176 185.655 354.634 188.154 352.952 189.516C 347.74 189.918 349.224 182.185 350.455 179.563C 346.33 174.966 341.645 170.935 337.152 166.705C 338.247 173.52 337.535 179.762 337.567 186.2C 337.576 187.446 337.554 189.823 337.982 191.175C 339.451 195.814 346.103 197.446 349.208 201.541C 354.9 209.043 351.568 226.498 353.782 238.451C 350.058 238.429 348.923 235.832 346.298 234.716C 341.703 226.26 337.424 212.233 341.311 201.125C 340.439 198.95 338.424 197.922 337.152 196.152C 334.144 204.656 333.129 213.32 330.085 221.448C 328.508 225.65 323.281 229.883 322.601 233.888C 321.798 238.631 323.655 243.463 323.849 248.401C 330.5 247.374 333.789 259.009 325.511 255.869C 324.783 258.977 318.985 261.41 317.197 257.526C 317.469 253.922 319.25 251.833 320.522 249.23C 319.443 246.298 319.436 242.296 319.276 238.451C 314.55 245.928 311.402 259.421 315.118 270.379C 321.866 272.924 317.541 285.764 312.625 276.599C 310.787 277.743 309.339 280.771 306.388 279.506C 303.98 275.062 309.3 272.174 311.793 269.966C 311.555 266.076 309.74 261.949 310.545 258.355C 308.405 261.326 306.44 265.061 303.892 269.134C 301.891 272.344 297.441 276.81 297.242 279.92C 296.968 284.238 301.349 287.335 301.816 292.36C 305.766 293.529 311.182 298.477 307.636 303.142C 304.955 303.326 303.138 302.651 301.816 301.481C 300.243 303.556 296.446 305.76 294.334 302.726C 293.681 297.929 296.6 296.694 298.906 294.847C 297.367 292.58 297.047 285.139 294.747 284.893C 293.114 284.721 290.22 291.667 288.928 294.429C 287.521 297.449 284.943 301.611 284.771 305.213C 284.545 309.886 288.405 317.769 283.524 319.313C 279.674 319.424 281.251 314.122 280.197 311.435C 277.607 311.751 276.088 313.14 272.713 312.677C 272.733 311.969 272.405 311.601 271.883 311.435C 272.679 306.839 276.255 305.014 281.029 304.386C 283.431 298.902 285.42 293.006 288.098 287.797C 278.873 293.649 270.58 300.127 260.244 305.627C 256.641 307.544 250.625 308.604 247.773 311.435C 245.69 313.504 243.002 317.192 241.951 320.557C 241.414 322.28 241.744 324.22 241.119 325.95C 236.839 337.81 228.013 345.305 216.177 350C 218.593 341.769 224.301 333.224 229.065 325.95C 232.17 323.795 234.911 321.276 239.041 320.145C 239.541 317.876 240.536 316.109 241.534 314.338Z"/>
<path id="path23_fill" d="M 59 193L 17.5 181.5L 0 155L 45 51L 151 0L 285 13L 354 98L 373 173L 344 190.5L 323.5 147.5L 318 148.5L 322.5 182.5L 290 198L 271 155L 247 107L 175 98L 140 98L 102 137L 81 173L 59 193Z"/>
</defs>
</svg>
