<svg width="50" height="67" viewBox="0 0 50 67" version="1.1" xmlns="http://www.w3.org/2000/svg" xmlns:xlink="http://www.w3.org/1999/xlink">
<title>pin</title>
<desc>Created using Figma</desc>
<g id="Canvas" transform="translate(-604 -3275)">
<g id="pin">
<g id="Vector">
<use xlink:href="#path0_fill" transform="translate(604 3275)" fill="#EACCB2"/>
</g>
<g id="like">
<g id="Vector">
<use xlink:href="#path1_fill" transform="translate(615 3290)" fill="#F4F4F4"/>
</g>
</g>
</g>
</g>
<defs>
<path id="path0_fill" d="M 42.5595 7.25333C 37.8508 2.57618 31.5899 0 24.9312 0C 18.2711 0 12.0115 2.57618 7.30283 7.25333C -1.41125 15.9077 -2.49417 32.1913 4.95758 42.0569L 24.9312 66.9622L 44.8749 42.097C 52.3565 32.1913 51.2736 15.9077 42.5595 7.25333Z"/>
<path id="path1_fill" d="M 14.4133 4.59296C 15.5838 1.88952 18.2576 0.000565176 21.3676 0.000565176C 25.5571 0.000565176 28.5743 3.49304 28.9536 7.6553C 28.9536 7.6553 29.1583 8.68852 28.7077 10.5487C 28.094 13.082 26.6515 15.3327 24.7068 17.0503L 14.4133 26L 4.29325 17.0498C 2.34847 15.3327 0.905979 13.0814 0.292327 10.5481C -0.158342 8.68796 0.0464022 7.65474 0.0464022 7.65474C 0.42573 3.49248 3.44295 0 7.63237 0C 10.743 0 13.2428 1.88952 14.4133 4.59296Z"/>
</defs>
</svg>
