<svg width="51" height="52" viewBox="0 0 51 52" version="1.1" xmlns="http://www.w3.org/2000/svg" xmlns:xlink="http://www.w3.org/1999/xlink">
<title>garden-rose</title>
<desc>Created using Figma</desc>
<g id="Canvas" transform="translate(-775 -1032)">
<g id="garden-rose">
<g id="Group">
<g id="Vector">
<use xlink:href="#path0_fill" transform="translate(775 1032)" fill="#DDBCB3"/>
</g>
<g id="Vector">
<use xlink:href="#path1_fill" transform="translate(813.342 1041.14)" fill="#DDBCB3"/>
</g>
</g>
</g>
</g>
<defs>
<path id="path0_fill" d="M 45.6611 50.003C 45.6161 49.976 45.5711 49.95 45.5261 49.923C 44.6651 46.492 43.0701 43.588 40.5331 41.125C 41.8291 40.332 42.9661 39.258 43.8221 37.948C 46.9631 33.139 45.5201 26.74 41.6621 22.827C 42.3841 21.117 42.6451 19.213 42.2951 17.281C 42.2371 16.961 42.1541 16.651 42.0611 16.347C 42.1021 16.323 42.1441 16.309 42.1841 16.273C 46.7211 12.147 49.2891 6.69101 50.0281 0.64001C 50.0701 0.29701 49.7011 -0.00199002 49.3891 9.97622e-06C 42.5771 0.04101 36.0091 1.60401 30.0481 4.93801C 30.0451 4.94001 30.0441 4.94201 30.0411 4.94401C 24.7851 2.34501 15.9961 3.85101 14.0831 9.50801C 14.0531 9.59701 14.0581 9.67901 14.0771 9.75601C 9.67206 8.63701 5.15206 10.735 3.15906 14.87C 2.01806 17.235 1.32506 22.65 4.71706 23.472C 0.390063 26.713 0.609063 32.647 3.62806 36.335C 3.61306 36.345 3.59706 36.341 3.58306 36.354C 1.48406 38.259 0.732063 41.016 0.419063 43.757C 0.237063 45.351 -0.726937 49.815 1.08306 50.859C 2.75206 51.821 6.01006 49.976 7.37206 49.142C 9.26506 47.983 10.9241 46.404 12.0631 44.505C 13.8371 46.281 16.4591 47.483 18.7161 47.859C 21.4831 48.32 24.2561 47.744 26.5871 46.39C 27.5101 48.99 30.9941 49.906 33.4341 50.621C 37.2781 51.748 41.2751 51.907 45.2191 51.304C 45.5791 51.249 45.7431 50.813 45.6741 50.502C 45.6701 50.485 45.6651 50.469 45.6611 50.452C 45.8021 50.355 45.8421 50.112 45.6611 50.003ZM 40.7111 42.998C 41.1931 43.59 41.6431 44.197 42.0401 44.83C 41.5291 44.883 41.0191 45.038 40.5261 45.157C 39.7911 45.334 39.0561 45.512 38.3221 45.689C 37.7001 45.323 37.0811 44.952 36.4621 44.582C 37.0251 44.487 37.5861 44.288 38.1201 44.136C 38.9161 43.909 39.7491 43.732 40.4921 43.362C 40.6651 43.275 40.7241 43.136 40.7111 42.998ZM 35.7841 44.179C 34.8251 43.602 33.8681 43.019 32.9171 42.424C 35.1351 42.938 37.4761 42.635 39.5321 41.659C 39.8241 41.959 40.0801 42.275 40.3481 42.586C 40.2881 42.569 40.2251 42.561 40.1581 42.572C 39.2761 42.713 38.4041 43.103 37.5651 43.407C 36.9591 43.626 36.3201 43.818 35.7841 44.179ZM 46.1611 9.14001C 44.9621 11.387 43.3691 13.339 41.5881 15.141C 40.4641 12.879 38.3181 11.344 35.8311 11.16C 37.4991 9.42701 39.7871 8.27201 41.6491 6.76401C 42.0291 6.45601 42.4201 6.13601 42.8101 5.81001C 44.0891 6.45301 46.1431 7.06701 47.4531 6.27401C 47.5221 6.23201 47.5581 6.17601 47.5861 6.11901C 47.0221 7.50201 46.3771 8.73601 46.1611 9.14001ZM 47.2691 5.59601C 46.5801 5.52301 45.8861 5.74501 45.1851 5.71101C 44.5541 5.68001 43.9481 5.54301 43.3521 5.35101C 44.1611 4.65501 44.9461 3.90901 45.6511 3.11401C 45.6831 3.24101 45.7801 3.34901 45.9521 3.35401C 46.3731 3.36401 46.7951 3.37501 47.2161 3.38501C 47.6021 3.39501 47.9951 3.44401 48.3631 3.30601C 48.4121 3.28801 48.4411 3.25501 48.4721 3.22401C 48.3381 4.08801 47.9971 5.10501 47.6121 6.05601C 47.6601 5.85201 47.5131 5.62201 47.2691 5.59601ZM 48.0621 1.29201C 48.4601 1.57701 48.5661 2.15101 48.5071 2.85501C 48.4731 2.81001 48.4271 2.77001 48.3621 2.74601C 47.9941 2.60801 47.6031 2.65801 47.2151 2.66701C 46.8111 2.67701 46.4071 2.68701 46.0031 2.69701C 46.3961 2.22101 46.7671 1.73201 47.0731 1.21401C 47.5671 1.18901 47.9411 1.20501 48.0621 1.29201ZM 42.9521 1.74801C 42.9861 1.74301 44.6151 1.45901 46.0331 1.30401C 44.3541 2.71301 42.8531 4.36601 41.1971 5.82001C 40.9691 4.65001 40.8111 3.46701 40.6141 2.29101C 40.6061 2.24301 40.5771 2.21401 40.5461 2.18901C 41.3441 2.02201 42.1461 1.87101 42.9521 1.74801ZM 39.0471 2.52101C 39.4411 2.42301 39.8381 2.34301 40.2341 2.25701C 40.2191 2.28501 40.1981 2.30901 40.1991 2.34501C 40.2551 3.68801 40.3751 5.02701 40.3721 6.37101C 40.3721 6.42101 40.3881 6.45901 40.3991 6.50101C 39.1881 7.47101 37.8531 8.34501 36.6721 9.36801C 36.6721 9.36501 36.6741 9.36201 36.6741 9.35901C 36.8061 7.32801 36.6881 5.25801 36.5971 3.21901C 37.4061 2.96501 38.2191 2.72701 39.0471 2.52101ZM 35.9621 3.43101C 35.8731 5.40101 35.7671 7.39901 35.8951 9.35901C 35.9111 9.59901 36.0831 9.72101 36.2621 9.73201C 35.7971 10.166 35.3631 10.631 34.9831 11.145C 34.6691 11.161 34.3541 11.183 34.0331 11.244C 34.1561 8.60501 32.8601 6.65801 30.8711 5.40501C 32.5451 4.66501 34.2371 4.00301 35.9621 3.43101ZM 3.97706 36.741C 5.13706 38.004 6.65506 38.946 8.44206 39.35C 8.22806 39.705 8.02806 40.067 7.82106 40.426C 7.75206 40.333 7.64506 40.266 7.49306 40.293C 6.66606 40.44 5.88806 40.812 5.06006 40.983C 4.13206 41.175 3.21706 41.197 2.27406 41.227C 2.26606 41.227 2.26306 41.234 2.25506 41.235C 2.65206 39.677 3.25806 38.222 3.97706 36.741ZM 1.63006 48.396C 1.05206 47.038 1.73306 44.091 1.95106 42.697C 2.00606 42.346 2.08906 42.01 2.16506 41.671C 2.18206 41.679 2.18806 41.697 2.21006 41.701C 3.76906 42.001 6.00606 41.917 7.45206 41.063C 6.84806 42.126 6.25406 43.194 5.66306 44.265C 5.19506 44.484 4.73706 44.717 4.22806 44.848C 3.45106 45.049 2.70706 45.018 1.92006 44.925C 1.65706 44.894 1.62706 45.297 1.86006 45.37C 2.79906 45.666 4.01006 45.691 5.04506 45.36C 4.29806 46.693 3.53706 48.018 2.70006 49.306C 2.24206 49.208 1.86006 48.938 1.63006 48.396ZM 3.45806 49.33C 4.37306 48.176 5.27206 46.972 6.11206 45.726C 6.17506 46.014 6.25506 46.298 6.37006 46.576C 6.53706 46.98 6.71106 47.403 7.09006 47.618C 6.11606 48.299 4.65806 49.179 3.45806 49.33ZM 7.87506 47.039C 7.80406 47.094 7.71206 47.164 7.62006 47.233C 7.54506 46.852 7.18906 46.56 6.99506 46.226C 6.78406 45.864 6.64106 45.478 6.53406 45.076C 7.11606 44.179 7.67306 43.267 8.16206 42.326C 8.38106 43.38 8.63106 44.433 8.93206 45.456C 8.98506 45.636 9.11406 45.725 9.25506 45.753C 8.83106 46.206 8.38406 46.641 7.87506 47.039ZM 9.77306 45.18C 9.44106 43.937 9.03506 42.687 8.57806 41.478C 8.88606 40.831 9.17506 40.177 9.41906 39.51C 9.61906 39.532 9.81806 39.557 10.0231 39.565C 9.89706 40.977 10.3381 42.264 11.1201 43.387C 10.6951 44.011 10.2531 44.61 9.77306 45.18ZM 20.5991 46.644C 17.8931 46.634 14.7041 45.391 12.7011 43.273C 12.7611 43.138 12.8301 43.007 12.8851 42.868C 13.1241 42.267 12.3171 41.927 11.8981 42.276C 11.3391 41.455 10.9461 40.538 10.8031 39.532C 11.2971 39.349 11.4071 38.497 10.7861 38.402C 7.26406 37.863 4.04206 36.075 3.04106 32.391C 2.09006 28.896 3.78506 26.079 5.73606 23.369C 5.83106 23.237 5.74806 23.094 5.62606 23.026C 5.60106 22.91 5.54206 22.801 5.44206 22.733C 2.35706 20.616 3.57306 15.909 5.71006 13.487C 7.87306 11.035 11.0961 10.231 14.2451 10.609C 14.5211 10.642 14.6531 10.393 14.6251 10.163C 14.7921 10.165 14.9521 10.095 15.0361 9.91001C 16.6401 6.35601 19.7471 4.83501 23.5921 4.90201C 27.7091 4.97401 32.9311 6.64101 33.2811 11.492C 32.9411 11.829 33.2411 12.533 33.8301 12.424C 38.5621 11.546 41.4581 15.722 40.9901 20.01C 40.9071 20.769 40.7301 21.486 40.4811 22.167C 40.1501 22.289 39.9301 22.668 40.1091 23.025C 39.2421 24.813 37.8381 26.3 36.1241 27.45C 35.9411 27.573 35.8841 27.75 35.9071 27.914C 35.7381 28.097 35.6571 28.364 35.8041 28.619C 37.5901 31.722 35.7691 35.214 32.9821 36.975C 31.8451 37.693 30.5921 38.136 29.2601 38.291C 28.2911 38.403 25.6921 38.5 24.8391 37.491C 24.8451 37.325 24.7591 37.191 24.6321 37.122C 24.6111 37.062 24.5881 37.003 24.5771 36.937C 24.5171 36.57 24.0101 36.705 23.9761 37.018C 23.9641 37.124 23.9811 37.211 23.9811 37.31C 21.7701 39.027 19.5391 40.399 16.6041 39.376C 13.5711 38.318 12.0691 34.765 12.5191 31.755L 12.5191 31.754C 12.7981 31.558 12.8161 31.089 12.4241 30.993C 9.33606 30.231 7.59806 28.229 8.48906 24.93C 9.09406 22.69 10.7721 20.984 12.2111 19.253C 12.3101 19.134 12.3291 18.982 12.3001 18.843C 12.4911 18.775 12.6331 18.588 12.5691 18.323C 11.0801 12.108 20.1061 13.111 23.5741 14.334C 23.7811 14.607 24.2891 14.66 24.4561 14.302C 25.5051 12.054 27.7961 10.527 30.0681 12.371C 32.1391 14.052 31.7581 16.954 29.8651 18.599C 29.6881 18.753 29.6951 18.975 29.7901 19.156C 29.4921 19.4 29.4131 19.898 29.8481 20.171C 32.0041 21.528 33.4851 23.81 32.9691 26.436C 32.5221 28.711 29.3951 32.758 26.7281 30.491C 26.4661 30.268 26.1571 30.421 26.0761 30.663C 26.0331 30.722 25.9991 30.794 25.9841 30.891C 25.6961 32.844 24.4011 34.198 22.3281 34.158C 20.4771 34.122 17.4521 32.788 17.5261 30.608C 17.5331 30.396 17.3861 30.265 17.2161 30.224C 17.1951 29.935 16.8591 29.79 16.6161 29.918C 16.0221 30.231 15.6201 30.673 14.8781 30.506C 14.0351 30.316 13.6931 29.486 13.6751 28.693C 13.6441 27.305 14.5761 26.194 15.4891 25.227C 15.7781 25.259 15.9561 25.019 15.8991 24.771C 16.0541 24.501 15.8141 24.161 15.5161 24.211C 14.9591 23.522 14.5571 22.909 14.5541 21.901C 14.5511 20.81 14.9901 19.75 15.7371 18.958C 17.1071 17.505 19.1921 16.968 21.1151 17.358C 21.1151 17.359 21.1151 17.36 21.1141 17.361C 21.0681 17.71 21.5031 17.855 21.7571 17.73C 22.4381 17.394 22.7891 16.807 23.6131 16.674C 24.4701 16.535 25.4311 16.771 26.0971 17.336C 27.7311 18.724 27.3071 21.284 26.2651 22.871C 26.1751 23.008 26.1951 23.155 26.2661 23.276C 26.2421 23.399 26.2651 23.535 26.3471 23.638C 27.5251 25.129 28.2011 27.315 26.0971 28.442C 24.0911 29.517 22.1231 28.046 21.6361 26.084C 21.6491 25.938 21.6511 25.792 21.6341 25.648C 21.5891 25.279 21.2161 25.112 20.9231 25.354C 20.4491 25.743 20.3111 26.326 19.9541 26.806C 19.5311 27.374 18.6251 27.93 18.0931 27.193C 17.4061 26.243 18.1901 24.813 18.9971 24.061C 19.0931 24.079 19.1911 24.094 19.2961 24.095C 19.7011 24.102 19.8131 23.639 19.5981 23.366C 19.0101 22.622 18.3101 21.606 19.1261 20.71C 19.8841 19.877 21.4111 20.327 21.8761 21.227C 22.0311 21.528 22.5021 21.318 22.4161 20.999C 21.9341 19.225 19.5651 18.504 18.2171 19.799C 17.3261 20.655 17.2381 22.651 18.1271 23.589C 16.6991 24.635 15.8341 26.793 17.1591 28.25C 18.3461 29.555 20.2431 28.72 21.1421 27.384C 21.9181 29.498 24.5031 30.668 26.6981 29.466C 28.8951 28.262 29.5971 24.355 27.1041 23.155C 28.5441 21.123 28.8141 17.988 26.6071 16.351C 25.4071 15.461 22.3871 15.099 21.4091 16.563C 18.8481 15.629 15.9121 16.494 14.2921 18.754C 13.2081 20.267 12.7821 23.604 14.5171 24.83C 12.8021 26.144 11.5171 28.315 12.8131 30.398C 13.3391 31.244 14.2631 31.766 15.2661 31.733C 15.7321 31.717 16.2371 31.573 16.6191 31.3C 16.5561 35.973 26.7481 37.079 27.0751 31.821C 29.4971 33.212 32.7161 30.672 33.7831 28.393C 35.3711 24.999 33.9461 20.929 30.6691 19.191C 33.1321 17.138 33.6021 13.322 30.8461 11.219C 28.4121 9.36101 24.2831 10.365 23.5771 13.443C 20.9211 11.741 17.4631 11.454 14.5231 12.664C 12.2861 13.585 10.1021 16.151 11.6701 18.536C 11.6671 18.538 11.6651 18.538 11.6621 18.54C 8.88906 20.517 6.42806 23.592 6.82006 27.206C 7.07706 29.566 9.14806 32.264 11.6701 31.988C 10.8271 35.331 12.3681 38.874 15.5681 40.4C 18.2551 41.681 22.5141 41.066 24.3241 38.501C 25.8381 40.625 31.8271 39.283 33.4271 38.387C 36.8201 36.487 39.6651 31.596 36.9181 28.103C 38.6211 27.14 40.0361 25.747 41.0101 24.108C 43.8511 27.63 45.1051 32.585 42.6861 36.729C 40.3701 40.696 35.5911 42.165 31.3511 41.014C 31.2671 40.513 30.5641 40.238 30.2101 40.783C 28.0131 44.162 24.7831 46.659 20.5991 46.644ZM 36.2961 49.878C 35.9741 49.822 35.6171 49.759 35.2371 49.687C 35.2211 49.127 35.2171 48.567 35.2411 48.007C 35.2741 47.235 35.4321 46.435 35.3481 45.666C 35.3191 45.399 34.9941 45.36 34.8921 45.604C 34.4091 46.762 34.4781 48.255 34.6181 49.565C 31.9301 49.017 28.4321 48.018 27.2911 45.945C 28.7231 44.975 29.9411 43.688 30.8501 42.166C 31.0381 42.32 31.2361 42.469 31.4271 42.622C 31.0751 44.481 31.1871 46.504 31.1281 48.366C 31.1161 48.744 31.6771 48.733 31.7081 48.366C 31.8531 46.675 32.1431 44.881 32.0971 43.151C 34.1471 44.734 36.3541 46.207 38.6551 47.479C 38.6011 48.376 38.6461 49.266 38.7311 50.161C 37.9201 50.103 37.1081 50.019 36.2961 49.878ZM 40.7161 45.846C 41.2831 45.737 41.8701 45.656 42.4041 45.44C 43.0411 46.552 43.5571 47.727 43.9401 48.986C 42.3311 48.035 40.7211 47.097 39.1131 46.154C 39.6481 46.051 40.1821 45.949 40.7161 45.846ZM 39.1701 50.185C 39.2461 49.395 39.2941 48.609 39.2691 47.818C 40.8841 48.678 42.5431 49.436 44.2301 50.048C 44.2331 50.062 44.2381 50.075 44.2411 50.089C 42.5461 50.239 40.8571 50.281 39.1701 50.185Z"/>
<path id="path1_fill" d="M 6.72601 0.148037C 4.61101 -0.186963 2.28201 0.0990365 0.188013 0.485037C -0.102987 0.539037 -0.0379878 1.01904 0.258012 1.00304C 2.38701 0.886037 4.48601 1.07104 6.60701 1.02804C 7.09001 1.01904 7.24401 0.230037 6.72601 0.148037Z"/>
</defs>
</svg>
