<svg width="104" height="104" viewBox="0 0 104 104" version="1.1" xmlns="http://www.w3.org/2000/svg" xmlns:xlink="http://www.w3.org/1999/xlink">
<title>rsvp</title>
<desc>Created using Figma</desc>
<g id="Canvas" transform="translate(-371 -3764)">
<g id="rsvp">
<g id="envelope">
<g id="Group">
<g id="Vector">
<use xlink:href="#path0_fill" transform="translate(371 3764)" fill="#666666"/>
<mask id="mask0_outline_ins">
<use xlink:href="#path0_fill" fill="white" transform="translate(371 3764)"/>
</mask>
<g mask="url(#mask0_outline_ins)">
<use xlink:href="#path1_stroke_2x" transform="translate(371 3764)" fill="#FFFFFF"/>
</g>
</g>
</g>
</g>
<g id="like (1)">
<g id="Group">
<g id="Vector">
<use xlink:href="#path2_fill" transform="translate(397 3810)" fill="#FFFFFF"/>
</g>
<g id="Vector">
<use xlink:href="#path3_fill" transform="translate(397 3810)" fill="#DDBCB3"/>
</g>
<g id="Vector">
<use xlink:href="#path4_fill" transform="translate(402.999 3816.08)" fill="#DDBCB3"/>
</g>
</g>
</g>
</g>
</g>
<defs>
<path id="path0_fill" d="M 102.131 36.3684L 53.2203 0.493545C 52.3287 -0.164515 51.2248 -0.164515 50.5667 0.493545L 1.10389 36.5382C 0.297202 37.0689 2.26258e-15 37.8331 2.26258e-15 38.5337L 2.26258e-15 101.792C 2.26258e-15 103.13 1.10389 104 2.20778 104L 2.42007 104L 101.367 104L 101.579 104C 102.895 104 103.787 103.108 103.999 102.005L 103.999 39.3191C 104.02 38.1091 103.596 37.3661 102.131 36.3684ZM 8.61884 99.6059L 44.4316 71.8612L 50.5879 76.3827C 51.3522 77.1045 52.3499 77.062 53.2415 76.3827L 59.1855 72.031L 94.7648 99.6059L 8.61884 99.6059L 8.61884 99.6059ZM 4.41556 42.3759L 40.8652 69.229L 4.41556 97.4831L 4.41556 42.3759ZM 62.7307 69.3988L 99.6049 42.3546L 99.6049 97.9713L 62.7307 69.3988ZM 51.9041 4.93014L 97.4821 38.4275L 51.9041 71.9461L 6.41106 38.3638L 51.9041 4.93014Z"/>
<path id="path1_stroke_2x" d="M 102.131 36.3684L 101.54 37.1748L 101.554 37.1851L 101.568 37.1949L 102.131 36.3684ZM 53.2203 0.493545L 52.6264 1.29814L 52.6288 1.2999L 53.2203 0.493545ZM 50.5667 0.493545L 51.1556 1.30172L 51.2186 1.2558L 51.2738 1.20067L 50.5667 0.493545ZM 1.10389 36.5382L 1.65349 37.3737L 1.67349 37.3605L 1.69283 37.3464L 1.10389 36.5382ZM 103.999 102.005L 104.981 102.193L 104.999 102.1L 104.999 102.005L 103.999 102.005ZM 103.999 39.3191L 102.999 39.3015L 102.999 39.3103L 102.999 39.3191L 103.999 39.3191ZM 44.4316 71.8612L 45.0236 71.0552L 44.4155 70.6087L 43.8192 71.0707L 44.4316 71.8612ZM 50.5879 76.3827L 51.2745 75.6557L 51.2296 75.6133L 51.1799 75.5767L 50.5879 76.3827ZM 53.2415 76.3827L 52.6508 75.5758L 52.6431 75.5815L 52.6355 75.5873L 53.2415 76.3827ZM 59.1855 72.031L 59.7981 71.2406L 59.2027 70.7791L 58.5948 71.2241L 59.1855 72.031ZM 94.7648 99.6059L 94.7648 100.606L 97.6875 100.606L 95.3774 98.8155L 94.7648 99.6059ZM 4.41556 42.3759L 5.0087 41.5708L 3.41556 40.3971L 3.41556 42.3759L 4.41556 42.3759ZM 40.8652 69.229L 41.4778 70.0193L 42.5236 69.2087L 41.4583 68.4239L 40.8652 69.229ZM 4.41556 97.4831L 3.41556 97.4831L 3.41556 99.5235L 5.02821 98.2734L 4.41556 97.4831ZM 62.7307 69.3988L 62.1393 68.5924L 61.0698 69.3768L 62.1182 70.1893L 62.7307 69.3988ZM 99.6049 42.3546L 100.605 42.3546L 100.605 40.3811L 99.0135 41.5483L 99.6049 42.3546ZM 99.6049 97.9713L 98.9924 98.7618L 100.605 100.011L 100.605 97.9713L 99.6049 97.9713ZM 51.9041 4.93014L 52.4963 4.12436L 51.9041 3.68912L 51.3119 4.12435L 51.9041 4.93014ZM 97.4821 38.4275L 98.0745 39.2331L 99.1703 38.4273L 98.0743 37.6217L 97.4821 38.4275ZM 51.9041 71.9461L 51.3102 72.7507L 51.903 73.1882L 52.4965 72.7517L 51.9041 71.9461ZM 6.41106 38.3638L 5.81886 37.558L 4.72485 38.362L 5.81716 39.1684L 6.41106 38.3638ZM 102.723 35.5621L 53.8117 -0.312806L 52.6288 1.2999L 101.54 37.1748L 102.723 35.5621ZM 53.8141 -0.311041C 52.6348 -1.18145 50.9564 -1.31034 49.8596 -0.213577L 51.2738 1.20067C 51.4931 0.981311 52.0226 0.852423 52.6264 1.29813L 53.8141 -0.311041ZM 49.9778 -0.314633L 0.514953 35.7301L 1.69283 37.3464L 51.1556 1.30172L 49.9778 -0.314633ZM 0.554291 35.7028C -0.564021 36.4385 -1 37.5348 -1 38.5337L 1 38.5337C 1 38.1315 1.15842 37.6994 1.65349 37.3737L 0.554291 35.7028ZM -1 38.5337L -1 101.792L 1 101.792L 1 38.5337L -1 38.5337ZM -1 101.792C -1 103.75 0.621771 105 2.20778 105L 2.20778 103C 1.58601 103 1 102.51 1 101.792L -1 101.792ZM 2.20778 105L 2.42007 105L 2.42007 103L 2.20778 103L 2.20778 105ZM 2.42007 105L 101.367 105L 101.367 103L 2.42007 103L 2.42007 105ZM 101.367 105L 101.579 105L 101.579 103L 101.367 103L 101.367 105ZM 101.579 105C 103.42 105 104.687 103.722 104.981 102.193L 103.017 101.816C 102.887 102.495 102.371 103 101.579 103L 101.579 105ZM 104.999 102.005L 104.999 39.3191L 102.999 39.3191L 102.999 102.005L 104.999 102.005ZM 104.999 39.3366C 105.006 38.6212 104.838 37.8553 104.472 37.2368C 104.077 36.6 103.47 36.0706 102.694 35.5419L 101.568 37.1949C 102.257 37.664 102.595 38.0048 102.773 38.2915C 102.98 38.5964 103.014 38.807 102.999 39.3015L 104.999 39.3366ZM 9.23127 100.396L 45.044 72.6517L 43.8192 71.0707L 8.00641 98.8153L 9.23127 100.396ZM 43.8397 72.6672L 49.996 77.1887L 51.1799 75.5767L 45.0236 71.0552L 43.8397 72.6672ZM 49.9013 77.1097C 50.4597 77.637 51.1464 77.9165 51.8786 77.908C 52.5949 77.8997 53.2703 77.6179 53.8475 77.1782L 52.6355 75.5873C 52.3211 75.8268 52.0519 75.9059 51.8553 75.9082C 51.6747 75.9103 51.4804 75.8501 51.2745 75.6557L 49.9013 77.1097ZM 53.8322 77.1896L 59.7762 72.8379L 58.5948 71.2241L 52.6508 75.5758L 53.8322 77.1896ZM 58.5729 72.8214L 94.1522 100.396L 95.3774 98.8155L 59.7981 71.2406L 58.5729 72.8214ZM 94.7648 98.6059L 8.61884 98.6059L 8.61884 100.606L 94.7648 100.606L 94.7648 98.6059ZM 3.82243 43.181L 40.2721 70.0341L 41.4583 68.4239L 5.0087 41.5708L 3.82243 43.181ZM 40.2525 68.4386L 3.80291 96.6927L 5.02821 98.2734L 41.4778 70.0193L 40.2525 68.4386ZM 5.41556 97.4831L 5.41556 42.3759L 3.41556 42.3759L 3.41556 97.4831L 5.41556 97.4831ZM 63.3221 70.2052L 100.196 43.161L 99.0135 41.5483L 62.1393 68.5924L 63.3221 70.2052ZM 98.6049 42.3546L 98.6049 97.9713L 100.605 97.9713L 100.605 42.3546L 98.6049 42.3546ZM 100.217 97.1809L 63.3432 68.6083L 62.1182 70.1893L 98.9924 98.7618L 100.217 97.1809ZM 51.3119 5.73593L 96.8898 39.2333L 98.0743 37.6217L 52.4963 4.12436L 51.3119 5.73593ZM 96.8896 37.6219L 51.3116 71.1405L 52.4965 72.7517L 98.0745 39.2331L 96.8896 37.6219ZM 52.498 71.1416L 7.00496 37.5593L 5.81716 39.1684L 51.3102 72.7507L 52.498 71.1416ZM 7.00325 39.1696L 52.4963 5.73594L 51.3119 4.12435L 5.81886 37.558L 7.00325 39.1696Z"/>
<path id="path2_fill" d="M 51.9108 14.416C 51.1518 6.062 45.2388 0.00100002 37.8388 0.00100002C 32.9088 0.00100002 28.3948 2.654 25.8548 6.906C 23.3378 2.599 19.0088 -2.47955e-08 14.1578 -2.47955e-08C 6.75876 -2.47955e-08 0.844763 6.061 0.0867633 14.415C 0.0267633 14.784 -0.219237 16.726 0.528763 19.893C 1.60676 24.461 4.09676 28.616 7.72776 31.906L 25.8428 48.345L 44.2688 31.907C 47.8998 28.616 50.3898 24.462 51.4678 19.893C 52.2158 16.727 51.9698 14.785 51.9108 14.416Z"/>
<path id="path3_fill" d="M 51.9108 14.416C 51.1518 6.062 45.2388 0.00100002 37.8388 0.00100002C 32.9088 0.00100002 28.3948 2.654 25.8548 6.906C 23.3378 2.599 19.0088 -2.47955e-08 14.1578 -2.47955e-08C 6.75876 -2.47955e-08 0.844763 6.061 0.0867633 14.415C 0.0267633 14.784 -0.219237 16.726 0.528763 19.893C 1.60676 24.461 4.09676 28.616 7.72776 31.906L 25.8428 48.345L 44.2688 31.907C 47.8998 28.616 50.3898 24.462 51.4678 19.893C 52.2158 16.727 51.9698 14.785 51.9108 14.416ZM 49.5208 19.435C 48.5368 23.607 46.2558 27.408 42.9308 30.42L 25.8548 45.655L 9.07176 30.424C 5.74076 27.406 3.46076 23.606 2.47576 19.434C 1.76776 16.437 2.05876 14.744 2.05976 14.733L 2.07476 14.632C 2.72476 7.313 7.80576 2 14.1578 2C 18.8448 2 22.9708 4.88 24.9288 9.515L 25.8498 11.698L 26.7708 9.515C 28.6978 4.951 33.0418 2.001 37.8398 2.001C 44.1908 2.001 49.2728 7.314 49.9358 14.728C 49.9378 14.744 50.2288 16.438 49.5208 19.435Z"/>
<path id="path4_fill" d="M 10 -1.9455e-07C 4.486 -1.9455e-07 7.24792e-08 4.486 7.24792e-08 10C 7.24792e-08 10.553 0.447 11 1 11C 1.553 11 2 10.553 2 10C 2 5.589 5.589 2 10 2C 10.553 2 11 1.553 11 1C 11 0.447 10.552 -1.9455e-07 10 -1.9455e-07Z"/>
</defs>
</svg>
